<?xml version="1.0" encoding="utf-8"?>
<!-- Generator: Adobe Illustrator 25.1.0, SVG Export Plug-In . SVG Version: 6.00 Build 0)  -->
<svg version="1.1" id="Layer_1" xmlns="http://www.w3.org/2000/svg" xmlns:xlink="http://www.w3.org/1999/xlink" x="0px" y="0px"
	 viewBox="0 0 64.5 125.5" style="enable-background:new 0 0 64.5 125.5;" xml:space="preserve">
<style type="text/css">
	.st0{opacity:0.7;}
	.st1{clip-path:url(#SVGID_2_);fill:#FF9B00;}
	.st2{clip-path:url(#SVGID_4_);fill:#FF9B00;}
</style>
<g id="Layer_1_1_">
</g>
<g id="Layer_2_1_">
	<g class="st0">
		<g>
			<defs>
				<rect id="SVGID_1_" width="64.5" height="125.5"/>
			</defs>
			<clipPath id="SVGID_2_">
				<use xlink:href="#SVGID_1_"  style="overflow:visible;"/>
			</clipPath>
			<path class="st1" d="M75.3,119.7c-2.4,3.6-6.4,5.8-10.8,5.8h-15h-22l33.7-51.8c4.5-6.8,4.5-15.7,0-22.5L27.5-0.5h22h15
				c4.3,0,8.4,2.2,10.8,5.8l29.9,45.9c4.5,6.8,4.5,15.7,0,22.5L75.3,119.7z"/>
		</g>
		<g>
			<defs>
				<rect id="SVGID_3_" width="64.5" height="125.5"/>
			</defs>
			<clipPath id="SVGID_4_">
				<use xlink:href="#SVGID_3_"  style="overflow:visible;"/>
			</clipPath>
			<path class="st2" d="M11.5,119.7c-2.4,3.6-6.4,5.8-10.8,5.8h-15h-22l33.7-51.8c4.5-6.8,4.5-15.7,0-22.5L-36.3-0.5h22h15
				c4.3,0,8.4,2.2,10.8,5.8l29.9,45.9c4.5,6.8,4.5,15.7,0,22.5L11.5,119.7z"/>
		</g>
	</g>
</g>
</svg>
