<?xml version="1.0" encoding="utf-8"?>
<!-- Generator: Adobe Illustrator 25.1.0, SVG Export Plug-In . SVG Version: 6.00 Build 0)  -->
<svg version="1.1" id="Layer_1" xmlns="http://www.w3.org/2000/svg" xmlns:xlink="http://www.w3.org/1999/xlink" x="0px" y="0px"
	 viewBox="0 0 34 218.9" style="enable-background:new 0 0 34 218.9;" xml:space="preserve">
<style type="text/css">
	.st0{clip-path:url(#SVGID_2_);}
	.st1{fill:#fff;}
</style>
<g>
	<defs>
		<rect id="SVGID_1_" width="34" height="218.9"/>
	</defs>
	<clipPath id="SVGID_2_">
		<use xlink:href="#SVGID_1_"  style="overflow:visible;"/>
	</clipPath>
	<g class="st0">
		<rect x="-13.6" y="-4" transform="matrix(0.8865 -0.4628 0.4628 0.8865 2.1487 8.759)" class="st1" width="65.1" height="8"/>
		
			<rect x="-13.6" y="12.8" transform="matrix(0.8865 -0.4628 0.4628 0.8865 -5.6436 10.6705)" class="st1" width="65.1" height="8"/>
		<rect x="-13.6" y="29.7" transform="matrix(0.8865 -0.4628 0.4628 0.8865 -13.436 12.582)" class="st1" width="65.1" height="8"/>
		
			<rect x="-13.6" y="46.5" transform="matrix(0.8865 -0.4628 0.4628 0.8865 -21.2284 14.4936)" class="st1" width="65.1" height="8"/>
		
			<rect x="-13.6" y="63.4" transform="matrix(0.8865 -0.4628 0.4628 0.8865 -29.0208 16.4051)" class="st1" width="65.1" height="8"/>
		
			<rect x="-13.6" y="80.2" transform="matrix(0.8865 -0.4628 0.4628 0.8865 -36.8131 18.3166)" class="st1" width="65.1" height="8"/>
		<rect x="-13.6" y="97" transform="matrix(0.8865 -0.4628 0.4628 0.8865 -44.6053 20.2281)" class="st1" width="65.1" height="8"/>
		
			<rect x="-13.6" y="113.9" transform="matrix(0.8865 -0.4628 0.4628 0.8865 -52.3977 22.1397)" class="st1" width="65.1" height="8"/>
		
			<rect x="-13.6" y="130.7" transform="matrix(0.8865 -0.4628 0.4628 0.8865 -60.1902 24.0513)" class="st1" width="65.1" height="8"/>
		
			<rect x="-13.6" y="147.5" transform="matrix(0.8865 -0.4628 0.4628 0.8865 -67.9823 25.9627)" class="st1" width="65.1" height="8"/>
		
			<rect x="-13.6" y="164.4" transform="matrix(0.8865 -0.4628 0.4628 0.8865 -75.7748 27.8743)" class="st1" width="65.1" height="8"/>
		
			<rect x="-13.6" y="181.2" transform="matrix(0.8865 -0.4628 0.4628 0.8865 -83.5669 29.7858)" class="st1" width="65.1" height="8"/>
		
			<rect x="-13.6" y="198.1" transform="matrix(0.8865 -0.4628 0.4628 0.8865 -91.3594 31.6974)" class="st1" width="65.1" height="8"/>
		
			<rect x="-13.6" y="214.9" transform="matrix(0.8865 -0.4628 0.4628 0.8865 -99.152 33.6089)" class="st1" width="65.1" height="8"/>
	</g>
</g>
</svg>
