<svg id="Layer_1" data-name="Layer 1" xmlns="http://www.w3.org/2000/svg" viewBox="0 0 908.24 182.81"><path d="M1.88,111.84,20.35,3h28L70.13,61,91.78,3h28l18.47,108.81H110.11l-9.38-62.63L75,111.84H63.78L39.4,49.21,30,111.84Z" fill="#fff"/><path d="M143.15,57.43A56,56,0,0,1,179,4.4a69.19,69.19,0,0,1,48.56,0,57.59,57.59,0,0,1,19.12,12.19,55.88,55.88,0,0,1,12.48,18.26,56.88,56.88,0,0,1,4.47,22.58A56.92,56.92,0,0,1,259.17,80a55.73,55.73,0,0,1-12.48,18.25,57.27,57.27,0,0,1-19.12,12.19,69,69,0,0,1-48.56,0,56.24,56.24,0,0,1-35.86-53Zm29.58,0a28.92,28.92,0,0,0,2.46,12,29.94,29.94,0,0,0,16.37,15.8,32,32,0,0,0,23.52,0,30.71,30.71,0,0,0,9.82-6.28,29.81,29.81,0,0,0,6.71-9.52,29.07,29.07,0,0,0,2.45-12,29,29,0,0,0-2.45-12,30,30,0,0,0-6.71-9.53,31.78,31.78,0,0,0-33.34-6.28,29.91,29.91,0,0,0-16.37,15.81A28.87,28.87,0,0,0,172.73,57.43Z" fill="#fff"/><path d="M268.55,57.43a56,56,0,0,1,35.86-53A69.16,69.16,0,0,1,353,4.4a57.39,57.39,0,0,1,19.12,12.19,56.06,56.06,0,0,1,12.49,18.26A56.88,56.88,0,0,1,389,57.43,56.92,56.92,0,0,1,384.57,80a55.91,55.91,0,0,1-12.49,18.25A57.07,57.07,0,0,1,353,110.46a69,69,0,0,1-48.55,0,56.24,56.24,0,0,1-35.86-53Zm29.58,0a29.07,29.07,0,0,0,2.45,12,30.25,30.25,0,0,0,6.64,9.52A29.93,29.93,0,0,0,317,85.21a32,32,0,0,0,23.52,0,30.71,30.71,0,0,0,9.82-6.28A29.81,29.81,0,0,0,357,69.41a29.07,29.07,0,0,0,2.45-12,29,29,0,0,0-2.45-12,30,30,0,0,0-6.71-9.53A31.78,31.78,0,0,0,317,29.65a30,30,0,0,0-16.38,15.81A29,29,0,0,0,298.13,57.43Z" fill="#fff"/><path d="M398.85,111.84V3h28.29l52.23,66.52V3h28.14V111.84H479.37L427.14,45.31v66.53Z" fill="#fff"/><path d="M582,30.88a34.84,34.84,0,0,0-9.23-5.55,24.39,24.39,0,0,0-9-1.81,14.53,14.53,0,0,0-8.95,2.6,8.11,8.11,0,0,0-3.46,6.78,6.75,6.75,0,0,0,1.73,4.76,15.08,15.08,0,0,0,4.55,3.25A37.76,37.76,0,0,0,564,43.29c2.35.68,4.69,1.4,7,2.17q13.85,4.62,20.27,12.33t6.42,20.13a39.34,39.34,0,0,1-2.81,15.16,31.61,31.61,0,0,1-8.23,11.61,37.79,37.79,0,0,1-13.27,7.51,55.34,55.34,0,0,1-17.82,2.67,65.5,65.5,0,0,1-38.24-12.27l12.12-22.8A49.15,49.15,0,0,0,542,88.17a30.17,30.17,0,0,0,12.27,2.74q6.91,0,10.31-3.17a9.82,9.82,0,0,0,2.53-11.48A9.23,9.23,0,0,0,564.22,73,23.18,23.18,0,0,0,559,70.13q-3.26-1.29-7.87-2.88-5.48-1.74-10.75-3.83A33.9,33.9,0,0,1,531,57.87a26,26,0,0,1-6.64-8.73c-1.68-3.52-2.52-8-2.52-13.35a38.57,38.57,0,0,1,2.67-14.65A32.61,32.61,0,0,1,532,9.88,33.47,33.47,0,0,1,543.81,2.6,44.71,44.71,0,0,1,559.46,0a68.64,68.64,0,0,1,16.89,2.24A74.85,74.85,0,0,1,593.23,8.8Z" fill="#fff"/><path d="M635.65,45h40.84V3h28.28V111.84H676.49V67H635.65v44.88H607.37V3h28.28Z" fill="#fff"/><path d="M714.59,57.43a56,56,0,0,1,35.86-53A69.16,69.16,0,0,1,799,4.4a57.39,57.39,0,0,1,19.12,12.19,56.06,56.06,0,0,1,12.49,18.26,56.88,56.88,0,0,1,4.47,22.58A56.92,56.92,0,0,1,830.61,80a55.91,55.91,0,0,1-12.49,18.25A57.07,57.07,0,0,1,799,110.46a69,69,0,0,1-48.55,0,56.24,56.24,0,0,1-35.86-53Zm29.58,0a29.07,29.07,0,0,0,2.45,12,30.25,30.25,0,0,0,6.64,9.52A29.93,29.93,0,0,0,763,85.21a32,32,0,0,0,23.52,0,30.71,30.71,0,0,0,9.82-6.28,29.81,29.81,0,0,0,6.71-9.52,29.07,29.07,0,0,0,2.45-12,29,29,0,0,0-2.45-12,30,30,0,0,0-6.71-9.53A31.78,31.78,0,0,0,763,29.65a30,30,0,0,0-16.38,15.81A29,29,0,0,0,744.17,57.43Z" fill="#fff"/><path d="M885,27v84.86H856.73V27H833.49V3h74.75V27Z" fill="#fff"/><path d="M50.42,135.94a2,2,0,0,1,2.13-2.13H55a2,2,0,0,1,2.13,2.13v30.53A18.62,18.62,0,0,1,56,173.11a14.33,14.33,0,0,1-3.23,5.15,14.8,14.8,0,0,1-5,3.34,17.05,17.05,0,0,1-6.57,1.21,17.5,17.5,0,0,1-3.9-.39,13.24,13.24,0,0,1-3.09-1.1,13.52,13.52,0,0,1-2.53-1.67,27.28,27.28,0,0,1-2.13-2q-1.07-1.06-2,0a14.57,14.57,0,0,1-4.83,3.84A15.33,15.33,0,0,1,16,182.81a17.05,17.05,0,0,1-6.57-1.21,14.71,14.71,0,0,1-5-3.34,14.33,14.33,0,0,1-3.23-5.15A18.62,18.62,0,0,1,0,166.47V135.94a2.12,2.12,0,0,1,.57-1.57,2.1,2.1,0,0,1,1.56-.56H4.62a2.1,2.1,0,0,1,1.56.56,2.12,2.12,0,0,1,.57,1.57v30.53a13.82,13.82,0,0,0,.53,3.95A8.56,8.56,0,0,0,9,173.58a7.62,7.62,0,0,0,2.87,2.09,10.48,10.48,0,0,0,4.16.75q4.75,0,7-2.84a11.11,11.11,0,0,0,2.24-7.11V135.94a2,2,0,0,1,2.13-2.13h2.49A2,2,0,0,1,32,135.94v30.53a14.18,14.18,0,0,0,.53,3.95,8.71,8.71,0,0,0,1.67,3.16A7.66,7.66,0,0,0,37,175.67a10.43,10.43,0,0,0,4.15.75c3.17,0,5.51-.95,7-2.84a11.17,11.17,0,0,0,2.23-7.11Z" fill="#fff"/><path d="M66.9,182.1A2,2,0,0,1,64.77,180v-44a2,2,0,0,1,2.13-2.13H90.34a2,2,0,0,1,2.13,2.13v2.13a2,2,0,0,1-2.13,2.13H72.23a.62.62,0,0,0-.71.71v12.78a.63.63,0,0,0,.71.71H88.92a2,2,0,0,1,2.13,2.13v2.13a2.08,2.08,0,0,1-.57,1.56,2.11,2.11,0,0,1-1.56.57H72.23a.63.63,0,0,0-.71.71V175a.63.63,0,0,0,.71.71H91.76a2.14,2.14,0,0,1,1.56.56,2.12,2.12,0,0,1,.57,1.57V180a2,2,0,0,1-2.13,2.13Z" fill="#fff"/><path d="M102.55,182.1a2,2,0,0,1-2.13-2.13v-44a2,2,0,0,1,2.13-2.13h12.07a14.18,14.18,0,0,1,5.37,1,13.79,13.79,0,0,1,4.4,2.85,13.43,13.43,0,0,1,3,4.29,13,13,0,0,1,1.1,5.33,12.13,12.13,0,0,1-.92,4.76,14.76,14.76,0,0,1-2.56,4,.82.82,0,0,0,.15,1.35,16.85,16.85,0,0,1,4.58,4.94,12.14,12.14,0,0,1,1.59,6.21,12.87,12.87,0,0,1-1.1,5.37,13.56,13.56,0,0,1-7.38,7.1,14,14,0,0,1-5.36,1Zm11.58-27.34a8.08,8.08,0,0,0,2.63-.47,7.85,7.85,0,0,0,2.45-1.35,7,7,0,0,0,1.81-2.3,7.44,7.44,0,0,0,.71-3.34A7,7,0,0,0,121,144a6.79,6.79,0,0,0-1.81-2.2,7.36,7.36,0,0,0-2.45-1.24,9.47,9.47,0,0,0-2.63-.39h-6.25a.62.62,0,0,0-.71.71v13.14a.63.63,0,0,0,.71.71Zm2.84,21a9.47,9.47,0,0,0,2.63-.39,7.29,7.29,0,0,0,2.45-1.25,6.79,6.79,0,0,0,1.81-2.2,7,7,0,0,0,.71-3.27,7.39,7.39,0,0,0-.71-3.33,6.93,6.93,0,0,0-1.81-2.31,8.15,8.15,0,0,0-2.45-1.35,8.06,8.06,0,0,0-2.63-.46h-9.09a.63.63,0,0,0-.71.71V175a.63.63,0,0,0,.71.71Z" fill="#fff"/><path d="M155.6,173.08a1.9,1.9,0,0,1,1.53-.64,2.51,2.51,0,0,1,1.46.64l1.27,1.1a9.57,9.57,0,0,0,1.64,1.1,10,10,0,0,0,2.13.82,11,11,0,0,0,2.77.32,8.32,8.32,0,0,0,5.61-1.89,5.93,5.93,0,0,0,2.2-4.72,6.84,6.84,0,0,0-2-5.11,24.24,24.24,0,0,0-6.22-4,39.29,39.29,0,0,1-4.86-2.7,18,18,0,0,1-3.73-3.19,12.48,12.48,0,0,1-2.38-4,14.78,14.78,0,0,1-.82-5.14,12.26,12.26,0,0,1,.93-4.69,11.55,11.55,0,0,1,2.7-4,13.59,13.59,0,0,1,4.29-2.81,15.88,15.88,0,0,1,12.57.5,19.8,19.8,0,0,1,4.58,3.26,1.87,1.87,0,0,1,0,3l-1.63,1.7a2.17,2.17,0,0,1-1.35.75,2.23,2.23,0,0,1-1.49-.75,17.65,17.65,0,0,0-2.84-2,8.15,8.15,0,0,0-4.19-1.13,7.53,7.53,0,0,0-2.88.53,7.79,7.79,0,0,0-2.27,1.38,6.12,6.12,0,0,0-1.49,2,5.15,5.15,0,0,0-.53,2.31,7.7,7.7,0,0,0,.46,2.77,6.7,6.7,0,0,0,1.42,2.23,11.48,11.48,0,0,0,2.48,2,28.85,28.85,0,0,0,3.73,1.84,40.36,40.36,0,0,1,5.19,2.7,17.89,17.89,0,0,1,3.83,3.16,12.26,12.26,0,0,1,2.38,4,15.08,15.08,0,0,1,.82,5.15,11.81,11.81,0,0,1-1.14,5.11,13.51,13.51,0,0,1-3.12,4.23,16.12,16.12,0,0,1-4.66,2.91,14.65,14.65,0,0,1-5.64,1.1,16.32,16.32,0,0,1-7.57-1.46,17.43,17.43,0,0,1-4.79-3.73,2.18,2.18,0,0,1-.64-1.42,1.93,1.93,0,0,1,.64-1.56Z" fill="#fff"/><path d="M199.56,182.1a2,2,0,0,1-2.13-2.13V140.91a.63.63,0,0,0-.71-.71H186.07a2,2,0,0,1-2.13-2.13v-2.13a2.12,2.12,0,0,1,.57-1.57,2.09,2.09,0,0,1,1.56-.56h29.47a2.09,2.09,0,0,1,1.56.56,2.12,2.12,0,0,1,.57,1.57v2.13a2,2,0,0,1-2.13,2.13H204.89a.63.63,0,0,0-.71.71V180a2,2,0,0,1-2.13,2.13Z" fill="#fff"/><path d="M248.35,135.94a2,2,0,0,1,2.13-2.13H253a2,2,0,0,1,2.13,2.13v30.53a17.22,17.22,0,0,1-1.24,6.64,14.75,14.75,0,0,1-3.48,5.15,16.21,16.21,0,0,1-5.29,3.34,19,19,0,0,1-13.36,0,16.31,16.31,0,0,1-5.29-3.34,14.75,14.75,0,0,1-3.48-5.15,17.22,17.22,0,0,1-1.24-6.64V135.94a2,2,0,0,1,2.13-2.13h2.49a2,2,0,0,1,2.13,2.13v30.53a10.27,10.27,0,0,0,2.55,7.11q2.56,2.83,7.39,2.84t7.39-2.84a10.27,10.27,0,0,0,2.55-7.11Z" fill="#fff"/><path d="M264.83,182.1A2,2,0,0,1,262.7,180v-44a2,2,0,0,1,2.13-2.13h12.43a18.75,18.75,0,0,1,7.14,1.31,16.49,16.49,0,0,1,5.5,3.59,15.67,15.67,0,0,1,3.51,5.39,18.12,18.12,0,0,1,1.25,6.75v14.2a18,18,0,0,1-1.25,6.75,15.81,15.81,0,0,1-3.51,5.4,16.47,16.47,0,0,1-5.5,3.58,18.75,18.75,0,0,1-7.14,1.32Zm23.08-31.25a12.11,12.11,0,0,0-.78-4.47,9.61,9.61,0,0,0-2.2-3.38,9.31,9.31,0,0,0-3.38-2.09,12.3,12.3,0,0,0-4.29-.71h-7.1a.62.62,0,0,0-.71.71V175a.63.63,0,0,0,.71.71h7.1a12.54,12.54,0,0,0,4.29-.71,9.67,9.67,0,0,0,3.38-2.06,9.27,9.27,0,0,0,2.2-3.34,12.4,12.4,0,0,0,.78-4.55Z" fill="#fff"/><path d="M304,182.1A2,2,0,0,1,301.9,180v-44a2,2,0,0,1,2.13-2.13h2.49a2,2,0,0,1,2.13,2.13v44a2,2,0,0,1-2.13,2.13Z" fill="#fff"/><path d="M349.27,166.47a17.41,17.41,0,0,1-1.24,6.64,14.75,14.75,0,0,1-3.48,5.15,16.21,16.21,0,0,1-5.29,3.34,19,19,0,0,1-13.36,0,16.21,16.21,0,0,1-5.29-3.34,14.75,14.75,0,0,1-3.48-5.15,17.22,17.22,0,0,1-1.24-6.64v-17a17.22,17.22,0,0,1,1.24-6.64,14.84,14.84,0,0,1,3.48-5.15,16.37,16.37,0,0,1,5.29-3.34,19.19,19.19,0,0,1,13.36,0,16.37,16.37,0,0,1,5.29,3.34,14.84,14.84,0,0,1,3.48,5.15,17.41,17.41,0,0,1,1.24,6.64Zm-6.75-17a10.23,10.23,0,0,0-2.55-7.1c-1.71-1.9-4.17-2.84-7.39-2.84s-5.68.94-7.39,2.84a10.23,10.23,0,0,0-2.55,7.1v17a10.27,10.27,0,0,0,2.55,7.11q2.56,2.83,7.39,2.84t7.39-2.84a10.27,10.27,0,0,0,2.55-7.11Z" fill="#fff"/><path d="M376.54,182.1a2,2,0,0,1-2.13-2.13v-44a2,2,0,0,1,2.13-2.13H379a2,2,0,0,1,2.13,2.13V175a.63.63,0,0,0,.71.71h19.38a2.15,2.15,0,0,1,1.57.56,2.12,2.12,0,0,1,.57,1.57V180a2,2,0,0,1-2.14,2.13Z" fill="#fff"/><path d="M410.27,182.1a2,2,0,0,1-2.13-2.13V140.91a.62.62,0,0,0-.71-.71H396.78a2,2,0,0,1-2.13-2.13v-2.13a2,2,0,0,1,2.13-2.13h29.47a2.11,2.11,0,0,1,1.57.56,2.15,2.15,0,0,1,.56,1.57v2.13a2.14,2.14,0,0,1-.56,1.56,2.12,2.12,0,0,1-1.57.57H415.6a.63.63,0,0,0-.71.71V180a2,2,0,0,1-2.13,2.13Z" fill="#fff"/><path d="M434.92,182.1a2.08,2.08,0,0,1-1.56-.57,2.11,2.11,0,0,1-.57-1.56v-44a2.12,2.12,0,0,1,.57-1.57,2.07,2.07,0,0,1,1.56-.56h12.43a18.66,18.66,0,0,1,7.13,1.31,16.44,16.44,0,0,1,5.51,3.59,15.67,15.67,0,0,1,3.51,5.39,18.12,18.12,0,0,1,1.25,6.75v14.2a18,18,0,0,1-1.25,6.75,15.81,15.81,0,0,1-3.51,5.4,16.41,16.41,0,0,1-5.51,3.58,18.67,18.67,0,0,1-7.13,1.32ZM458,150.85a12.11,12.11,0,0,0-.78-4.47A9.61,9.61,0,0,0,455,143a9.39,9.39,0,0,0-3.38-2.09,12.3,12.3,0,0,0-4.29-.71h-7.11a.63.63,0,0,0-.71.71V175a.63.63,0,0,0,.71.71h7.11a12.54,12.54,0,0,0,4.29-.71,9.76,9.76,0,0,0,3.38-2.06,9.27,9.27,0,0,0,2.2-3.34,12.4,12.4,0,0,0,.78-4.55Z" fill="#fff"/></svg>