<svg xmlns="http://www.w3.org/2000/svg" viewBox="0 0 255.94 260.41"><g id="Layer_2" data-name="Layer 2"><g id="Layer_1-2" data-name="Layer 1"><path d="M230.6,36a44.13,44.13,0,0,0-74,20.1L36.67,133.33a6.25,6.25,0,0,0-6.94,1.13,6.08,6.08,0,1,0,10.38,4.3c0-.06,0-.12,0-.18L155.28,64.4A44.08,44.08,0,0,0,166,96.19L60.23,201.93a6.05,6.05,0,1,0,4.64,5.88,6.94,6.94,0,0,0-.2-1.45L170.4,100.63a44.07,44.07,0,0,0,28.94,10.82c.95,0,1.9-.07,2.85-.13L128,226.56a6,6,0,1,0,4.16,10.3h0a6.07,6.07,0,0,0,1.14-7L210.5,110a43.8,43.8,0,0,0,20.1-11.46A44.26,44.26,0,0,0,230.6,36Zm-4.43,58.1a37.93,37.93,0,1,1,0-53.67A38,38,0,0,1,226.17,94.09Z" fill="#ededed"/><path d="M216,42.12A30.39,30.39,0,0,0,184.48,41a3.13,3.13,0,0,0,3.09,5.45,24,24,0,0,1,25,.87A3.13,3.13,0,1,0,216,42.12Z" fill="#ededed"/><path d="M88.87,41.81h4.62v4.62a3.13,3.13,0,1,0,6.26,0V41.81h4.63a3.14,3.14,0,0,0,0-6.27H99.75V30.92a3.13,3.13,0,1,0-6.26,0v4.62H88.87a3.14,3.14,0,1,0,0,6.27Z" fill="#ededed"/><path d="M254.16,232.57a3.14,3.14,0,0,0-4.43,0l-3.27,3.27-3.27-3.27a3.13,3.13,0,0,0-4.43,4.43l3.27,3.27-3.27,3.27a3.13,3.13,0,1,0,4.43,4.43l3.27-3.27,3.27,3.27a3.13,3.13,0,0,0,4.43-4.43l-3.27-3.27,3.27-3.27A3.14,3.14,0,0,0,254.16,232.57Z" fill="#ededed"/><path d="M16.32,197.11a3.12,3.12,0,0,0-4.43,0l-3.27,3.27-3.27-3.27a3.13,3.13,0,1,0-4.43,4.43l3.27,3.27L.92,208.08a3.13,3.13,0,0,0,4.43,4.43l3.27-3.27,3.27,3.27a3.13,3.13,0,1,0,4.43-4.43l-3.27-3.27,3.27-3.27A3.14,3.14,0,0,0,16.32,197.11Z" fill="#ededed"/><path d="M70,254a3.19,3.19,0,1,0,3.19,3.19A3.19,3.19,0,0,0,70,254Z" fill="#ededed"/><path d="M252.76,6.36a3.18,3.18,0,1,0-3.18-3.18A3.18,3.18,0,0,0,252.76,6.36Z" fill="#ededed"/><path d="M47.32,74.25a3.18,3.18,0,1,0-3.18-3.18A3.18,3.18,0,0,0,47.32,74.25Z" fill="#ededed"/><path d="M17.49,11.61a3.19,3.19,0,1,0,3.18,3.18A3.18,3.18,0,0,0,17.49,11.61Z" fill="#ededed"/><path d="M205.47,181.65A12.36,12.36,0,1,0,217.83,194,12.37,12.37,0,0,0,205.47,181.65Zm0,18.46a6.1,6.1,0,1,1,6.1-6.1A6.11,6.11,0,0,1,205.47,200.11Z" fill="#ededed"/></g></g></svg>