<svg xmlns="http://www.w3.org/2000/svg" viewBox="0 0 210.98 211.01"><g id="Layer_2" data-name="Layer 2"><g id="Layer_1-2" data-name="Layer 1"><path d="M121.19,95.39a3.16,3.16,0,0,0,1-.18L182,74.1a3.13,3.13,0,0,0-2.08-5.91L120.14,89.3a3.13,3.13,0,0,0,1,6.09Z" fill="#ededed"/><path d="M78.32,38.66a3.13,3.13,0,0,0-4-1.91l-9.87,3.48a3.13,3.13,0,1,0,2.09,5.91l9.87-3.48A3.14,3.14,0,0,0,78.32,38.66Z" fill="#ededed"/><path d="M73.4,63.12a4.15,4.15,0,0,0-.32-.53,2.24,2.24,0,0,0-.37-.47,3.2,3.2,0,0,0-3.42-.69,3,3,0,0,0-1,.69,3.07,3.07,0,0,0-.94,2.22,3.21,3.21,0,0,0,.25,1.19,2.76,2.76,0,0,0,.69,1,2.61,2.61,0,0,0,1,.69,3.1,3.1,0,0,0,1.19.25,3.38,3.38,0,0,0,1.23-.25,2.61,2.61,0,0,0,1-.69,3,3,0,0,0,.91-2.19,1.94,1.94,0,0,0-.07-.63A4.65,4.65,0,0,0,73.4,63.12Z" fill="#ededed"/><path d="M62,88.81a3.15,3.15,0,0,0-1-.69,3.19,3.19,0,0,0-3.41.69,3,3,0,0,0-.66,1A3.21,3.21,0,0,0,56.67,91a3.15,3.15,0,0,0,.91,2.2,3.19,3.19,0,0,0,2.22.93A3.24,3.24,0,0,0,61,93.92a2.75,2.75,0,0,0,1-.69,1.54,1.54,0,0,0,.37-.47,2.61,2.61,0,0,0,.31-.54,3.23,3.23,0,0,0,.16-.59,2,2,0,0,0,.06-.6,3.18,3.18,0,0,0-.22-1.22A3.53,3.53,0,0,0,62,88.81Z" fill="#ededed"/><path d="M195.93,159.76a105.48,105.48,0,0,0,12.89-75.48h0A106.24,106.24,0,0,0,205,70.41,105.47,105.47,0,0,0,10.37,60a105.44,105.44,0,0,0,185.3,100.15A3.66,3.66,0,0,0,195.93,159.76Zm-57.37,39.31a98.71,98.71,0,0,1-57.9,2.47l25.4-9a3.13,3.13,0,0,0-2.08-5.91L71,198.3c-.06,0-.11.08-.17.11a100.38,100.38,0,0,1-19.17-9.65L138,158.27a3.13,3.13,0,0,0-2.08-5.91l-90.56,32a98.63,98.63,0,0,1-26.09-29.86l96.5-34.07a3.13,3.13,0,0,0-2.08-5.91L16.31,148.88A101.48,101.48,0,0,1,12,138.56c-.47-1.32-.88-2.64-1.29-4L68,114.34a3.13,3.13,0,0,0-2.08-5.9L9,128.54a98,98,0,0,1-2.41-15.42l36.66-13a3.13,3.13,0,0,0-2.08-5.9L6.35,106.57a99.45,99.45,0,0,1,9.07-42.38l28-9.89a3.13,3.13,0,0,0-2.09-5.91L19.62,56.06a98.8,98.8,0,0,1,121.78-43L106.32,25.45a3.14,3.14,0,0,0,1.05,6.09,3.21,3.21,0,0,0,1-.18l41.35-14.6a99.55,99.55,0,0,1,16.61,10.4L88.67,54.59a3.13,3.13,0,0,0,1,6.09,3.21,3.21,0,0,0,1-.18L172,31.82a98.74,98.74,0,0,1,11.44,12.23l-48.19,17a3.13,3.13,0,0,0,1.05,6.08,3,3,0,0,0,1-.18l50-17.64A100,100,0,0,1,199.07,72.5a97,97,0,0,1,3.12,10.79l-48.13,17a3.13,3.13,0,0,0,1.05,6.09,3.21,3.21,0,0,0,1-.18L203.41,89.5a97.91,97.91,0,0,1,1.3,15.77l-130,45.91a3.13,3.13,0,0,0,1,6.09,3.22,3.22,0,0,0,1-.18L204.51,112a98.41,98.41,0,0,1-2.66,17l-35.79,12.64a3.13,3.13,0,1,0,2.08,5.91l31.59-11.15A100.79,100.79,0,0,1,190.88,156l-37.32,13.17a3.13,3.13,0,0,0,1.05,6.09,3.21,3.21,0,0,0,1-.18l29.51-10.42A98.62,98.62,0,0,1,138.56,199.07Z" fill="#ededed"/><path d="M100.4,73.36,78.84,81a3.13,3.13,0,0,0,1,6.08,3,3,0,0,0,1.05-.18l21.56-7.61a3.13,3.13,0,0,0-2.09-5.91Z" fill="#ededed"/><path d="M128.19,178.16a3.51,3.51,0,0,0-.6.15,3.55,3.55,0,0,0-.53.32,3.08,3.08,0,0,0-.5.37,3.27,3.27,0,0,0-.91,2.23,3.32,3.32,0,0,0,.91,2.22c.16.13.31.25.5.38a2.25,2.25,0,0,0,.53.28,2.34,2.34,0,0,0,.6.19,4.07,4.07,0,0,0,.6.06,3.26,3.26,0,0,0,2.22-.91,3.18,3.18,0,0,0,0-4.45A3.13,3.13,0,0,0,128.19,178.16Z" fill="#ededed"/><path d="M55.5,158l-12.94,4.57a3.13,3.13,0,1,0,2.08,5.91l12.94-4.57A3.13,3.13,0,1,0,55.5,158Z" fill="#ededed"/></g></g></svg>