<svg xmlns="http://www.w3.org/2000/svg" viewBox="0 0 211.02 211.03"><g id="Layer_2" data-name="Layer 2"><g id="Layer_1-2" data-name="Layer 1"><path d="M210.86,100.06h0a105.36,105.36,0,0,0-3.35-21.36v0h0A105.47,105.47,0,0,0,78.68,3.51a104.67,104.67,0,0,0-53.44,33.6h0v0A107.55,107.55,0,0,0,14.41,52.36a105.5,105.5,0,0,0,38,144.26A107,107,0,0,0,67,203.68a3.92,3.92,0,0,0,.6.23A104.24,104.24,0,0,0,105.34,211a106.2,106.2,0,0,0,27-3.51,105.51,105.51,0,0,0,78.51-107.46Zm-21,57.7a13.9,13.9,0,0,0-3.62-3.16c-10.6-6.48-31.68-3.34-62.63,9.34-44.82,18.35-55-1.74-65.83-23-3.45-6.79-7-13.81-11.72-19.35-6.12-7.18-13.12-11-20.81-11.42S11,112.92,6.82,115.59A98.25,98.25,0,0,1,7.13,92.4a78.44,78.44,0,0,0,10.79.74c8.57,0,19.76-1.38,29.85-7,2.43-1.35,5.12-3,8-4.68C75.36,69.83,104.9,52.29,134.2,60.81c29.13,8.46,47.4-4.07,54.07-10a99,99,0,0,1,12.59,27.44C196,81.48,181.08,90.1,165.59,85c-13.33-4.38-28.24-2.43-38,5-6.33,4.79-9.65,11.38-9.34,18.54a19,19,0,0,0,6.55,13.68c11.9,10.82,34.87,10.49,41.63,10.13,15.85-.81,26.35,8.44,30.16,12.48a100.35,100.35,0,0,1-5.4,10.71C190.76,156.27,190.28,157,189.82,157.76Zm-23.71-31.7c-12.67.67-29.06-1.21-37.09-8.51a12.78,12.78,0,0,1-4.5-9.3c-.28-6.48,3.58-10.8,6.86-13.28,8-6.09,21-7.7,32.26-4,16.53,5.42,31.86-2,38.85-6.33a99.56,99.56,0,0,1,1.87,12.52c-23.21,1.27-28.46,8.44-29.46,12.74a8.37,8.37,0,0,0,4.51,9.31c5.72,3,19.94,10,22.18,11.09-.71,2.75-1.53,5.48-2.49,8.17C193.51,133.26,182.19,125.2,166.11,126.06ZM203,124c-4.26-2.08-15.82-7.78-20.69-10.35-.28-.15-1.66-1-1.34-2.35.6-2.58,6.34-7,23.72-7.92A98.17,98.17,0,0,1,203,124ZM80.28,9.57a99.84,99.84,0,0,1,25.4-3.3,98.66,98.66,0,0,1,49.83,13.56c1.72,1,3.39,2.06,5,3.16-4.86,3.24-15.63,8.11-31.62,2.42-22.27-7.92-31.16-1.51-47.29,10.14-2.86,2.06-6,4.31-9.5,6.73C55,54,38.07,43.54,32,38.89A98.59,98.59,0,0,1,80.28,9.57Zm-60.45,46A99.21,99.21,0,0,1,28,43.64c4.65,3.51,15.16,10.21,27.69,10.21a34.77,34.77,0,0,0,20-6.41c3.56-2.44,6.73-4.72,9.62-6.81,15.82-11.41,22.36-16.14,41.53-9.31,20.71,7.37,34.15-.59,39.1-4.48a98.25,98.25,0,0,1,18.71,18.74C179.57,50.27,163,62.66,136,54.79,104,45.52,73.09,63.89,52.61,76.05c-2.87,1.7-5.51,3.27-7.89,4.6-13.56,7.58-30,6.43-36.54,5.56A99.2,99.2,0,0,1,19.83,55.52ZM15.7,147.63a23.36,23.36,0,0,1,13.57,3.57c9.15,5.67,15.84,18,19.53,35.68A98.14,98.14,0,0,1,15.7,147.63Zm115.05,53.82a98.47,98.47,0,0,1-53.69-.88c18.62-7.14,33.25-6.58,42.62-4.61a52.93,52.93,0,0,1,13.56,4.77C132.41,201,131.59,201.23,130.75,201.45ZM141,198.14c-3.51-2.62-29.76-20.3-72.75-.66a100.83,100.83,0,0,1-12.27-6s0-.06,0-.09c-3.74-22.87-11.63-38.18-23.45-45.5a29.39,29.39,0,0,0-19.45-4.28,102.48,102.48,0,0,1-3.55-10.84c-.71-2.72-1.28-5.46-1.77-8.2,2.65-2.08,9.29-6.56,17.08-6.15,5.91.31,11.41,3.42,16.36,9.23,4.23,5,7.48,11.36,10.91,18.12,8.15,16.05,17.1,33.67,41.25,33.67,8.67,0,19.29-2.27,32.54-7.69,37.53-15.38,51.64-12.84,56.7-10,2.82,1.6,3.28,3.56,3.33,3.79A98.27,98.27,0,0,1,141,198.14Z" fill="#ededed"/><path d="M115.06,129.05a19.44,19.44,0,0,0-28.57-7.2l-3.86,2.71a19.43,19.43,0,0,0,16.12,34.71l4.62-1.21a19.44,19.44,0,0,0,12.44-27.5Zm-4.63,15.63a13.1,13.1,0,0,1-8.65,7.32l-4.62,1.21A13.12,13.12,0,0,1,81.44,145h0a13.19,13.19,0,0,1,4.79-15.33L90.1,127a13.17,13.17,0,0,1,7.57-2.39,13.19,13.19,0,0,1,11.79,7.28l.75,1.5A13.13,13.13,0,0,1,110.43,144.68Z" fill="#ededed"/><path d="M82.09,108.69a15.27,15.27,0,0,0,12.74-1.06l3.08-1.73a15.37,15.37,0,0,0,7.32-17.22h0A15.3,15.3,0,0,0,88,77.38l-3.53.56A15.34,15.34,0,0,0,72.52,98.57L73,99.74A15.3,15.3,0,0,0,82.09,108.69ZM79,88.55a9,9,0,0,1,6.43-4.42L89,83.57a9.08,9.08,0,0,1,5.89,16.87l-3.09,1.73A9.07,9.07,0,0,1,78.82,97.5l-.45-1.17A9.06,9.06,0,0,1,79,88.55Z" fill="#ededed"/><path d="M64.6,102.51a10.69,10.69,0,0,0-9,1.36A10.7,10.7,0,0,0,57,122.45a10.62,10.62,0,0,0,12-2,10.7,10.7,0,0,0-4.36-18Zm0,13.45a4.31,4.31,0,0,1-5,.81,4.42,4.42,0,0,1-.57-7.69,4.34,4.34,0,0,1,2.46-.75,4.64,4.64,0,0,1,1.27.18A4.43,4.43,0,0,1,65.62,111,4.33,4.33,0,0,1,64.61,116Z" fill="#ededed"/><path d="M152.75,97.14a9.81,9.81,0,0,0-8.26,1.24A9.81,9.81,0,1,0,159,102.7,9.82,9.82,0,0,0,152.75,97.14Zm-.35,12a3.54,3.54,0,1,1-4.42-5.5,3.56,3.56,0,0,1,2-.6,3.48,3.48,0,0,1,1,.15,3.52,3.52,0,0,1,2.25,2A3.47,3.47,0,0,1,152.4,109.09Z" fill="#ededed"/></g></g></svg>