<svg xmlns="http://www.w3.org/2000/svg" viewBox="0 0 242.63 171.91"><g id="Layer_2" data-name="Layer 2"><g id="Layer_1-2" data-name="Layer 1"><path d="M240.44,31.44C233,15.25,209,10.2,172.86,17.18A86.21,86.21,0,0,0,151.29,5.44,85.88,85.88,0,0,0,35.87,77.49c0,.11,0,.21,0,.31-.08.78-.16,1.56-.22,2.34a2.86,2.86,0,0,0-.52.27c-29,23-40.34,43.77-32.87,60.09,5.65,12.33,20,17.43,38.78,17.43A153.64,153.64,0,0,0,69.9,154.8,85.93,85.93,0,0,0,207.06,91.92c3.77-3,7.29-5.93,10.51-8.88C239,63.42,246.91,45.58,240.44,31.44ZM88.17,13.54A79.61,79.61,0,0,1,198.74,67.22c-14.07,12.21-36,27.1-67.08,41.31S75,129.64,56.56,132.32c-.47-.66-1-1.3-1.4-2l14.15-6.48a3.13,3.13,0,0,0-2.61-5.7L51.89,125c-1.06-1.91-2.08-3.84-3-5.82-.56-1.24-1.09-2.49-1.59-3.74l14-6.42a3.13,3.13,0,0,0-2.61-5.7l-13.49,6.18a79.3,79.3,0,0,1-2.69-11.79l17.42-8A3.13,3.13,0,1,0,57.36,84l-15.5,7.1A78.28,78.28,0,0,1,42,79.73l17.3-7.92a3.13,3.13,0,1,0-2.61-5.7l-13.76,6.3a80,80,0,0,1,4.29-15.36,1.29,1.29,0,0,0,.19,0l12.77-5.85a3.13,3.13,0,0,0-2.6-5.7l-6.38,2.92A79.29,79.29,0,0,1,88.17,13.54ZM204,62.47a86.33,86.33,0,0,0-10.85-23.73c16.9-1.56,24.31,1.19,25.08,2.88C219.4,44.21,214.92,52,204,62.47ZM40.48,115s0,.05,0,.08,0,0,0,0c.81,2.23,1.69,4.44,2.69,6.63a85.58,85.58,0,0,0,6.34,11.44c-15.06,1.46-23.9-.26-25.09-2.85-.75-1.65,1.93-9.06,14.21-20.88C39.2,111.3,39.82,113.15,40.48,115Zm114,43.42a79.64,79.64,0,0,1-40.77,6.85l2.91-1.34a3.13,3.13,0,1,0-2.6-5.69l-10.69,4.89a3.12,3.12,0,0,0-.47.34,78.41,78.41,0,0,1-10-3.09l5.42-2.48a3.13,3.13,0,0,0-2.61-5.7l-10.09,4.62c-.1.05-.17.14-.27.2a78.52,78.52,0,0,1-7.06-4c20.54-4.79,42.76-12.71,63.56-22.24a343.67,343.67,0,0,0,58.37-33.66A79.61,79.61,0,0,1,154.5,158.41Zm58.84-80c-17.66,16.16-44.67,33.16-74.11,46.64-55,25.17-119.67,38.22-131.3,12.84-5.76-12.6,4-30.15,27.52-49.68A84,84,0,0,0,37,102.46c-.06.05-.14.07-.2.12-6.77,6.21-22.07,21.58-18.06,30.36C20.9,137.6,28.49,140,40,140a117,117,0,0,0,15.16-1.13h0a2.51,2.51,0,0,0,.27,0C76.36,136,104.25,128,134.27,114.22,164,100.6,188.22,84.88,204.05,71a.46.46,0,0,1,.07-.07c15.33-13.5,22.79-25.31,19.79-31.88-3.94-8.61-24.54-7.36-35-6.13a84.61,84.61,0,0,0-9.72-10.47c30.13-5,49.78-1,55.55,11.64C241.35,48.48,226.75,66.14,213.34,78.42Z" fill="#ededed"/></g></g></svg>