<svg xmlns="http://www.w3.org/2000/svg" viewBox="0 0 277.28 192.29"><g id="Layer_2" data-name="Layer 2"><g id="Layer_1-2" data-name="Layer 1"><path d="M97.6,143.89a10.47,10.47,0,1,0,10.47,10.47A10.48,10.48,0,0,0,97.6,143.89Zm0,14.67a4.21,4.21,0,1,1,4.21-4.2A4.21,4.21,0,0,1,97.6,158.56Z" fill="#ededed"/><path d="M269.27,86.67a8,8,0,1,0-8-8A8,8,0,0,0,269.27,86.67Zm0-9.75a1.75,1.75,0,1,1-1.74,1.74A1.74,1.74,0,0,1,269.27,76.92Z" fill="#ededed"/><path d="M173.1,47a14.2,14.2,0,1,0-14.2-14.2A14.21,14.21,0,0,0,173.1,47Zm0-22.13a7.93,7.93,0,1,1-7.93,7.93A7.94,7.94,0,0,1,173.1,24.85Z" fill="#ededed"/><path d="M17.44,19.29h4.62v4.62a3.14,3.14,0,0,0,6.27,0V19.29H33A3.14,3.14,0,0,0,33,13H28.33V8.4a3.14,3.14,0,0,0-6.27,0V13H17.44a3.14,3.14,0,1,0,0,6.27Z" fill="#ededed"/><path d="M255.17,171.37h-4.62v-4.62a3.13,3.13,0,0,0-6.26,0v4.62h-4.63a3.14,3.14,0,0,0,0,6.27h4.63v4.62a3.13,3.13,0,1,0,6.26,0v-4.62h4.62a3.14,3.14,0,1,0,0-6.27Z" fill="#ededed"/><path d="M224.21,16.32a3.15,3.15,0,0,0,4.43,0l3.27-3.27,3.27,3.27a3.11,3.11,0,0,0,2.21.91,3.13,3.13,0,0,0,2.22-5.34l-3.27-3.27,3.27-3.27A3.13,3.13,0,0,0,235.18.92l-3.27,3.27L228.64.92a3.13,3.13,0,0,0-4.43,4.43l3.27,3.27-3.27,3.27A3.12,3.12,0,0,0,224.21,16.32Z" fill="#ededed"/><path d="M36.42,166.8a3.14,3.14,0,0,0-4.43,0l-3.27,3.27-3.27-3.27A3.13,3.13,0,1,0,21,171.23l3.27,3.27L21,177.77a3.13,3.13,0,1,0,4.43,4.43l3.27-3.27L32,182.2a3.12,3.12,0,0,0,2.21.92,3.14,3.14,0,0,0,2.22-5.35l-3.27-3.27,3.27-3.27A3.14,3.14,0,0,0,36.42,166.8Z" fill="#ededed"/><path d="M81.19,185.92a3.19,3.19,0,1,0,3.18,3.18A3.18,3.18,0,0,0,81.19,185.92Z" fill="#ededed"/><path d="M228.73,89.7a3.18,3.18,0,1,0,3.18-3.18A3.18,3.18,0,0,0,228.73,89.7Z" fill="#ededed"/><path d="M100.78,11.8A3.19,3.19,0,1,0,97.6,8.62,3.19,3.19,0,0,0,100.78,11.8Z" fill="#ededed"/><path d="M72.17,147.18c-40.65-10.88-65.9-30.79-65.9-52C6.27,62,65.53,35,138.37,35a3.14,3.14,0,0,0,0-6.27C60.78,28.76,0,57.94,0,95.2c0,24.52,26.38,46.21,70.55,58a2.87,2.87,0,0,0,.81.11,3.13,3.13,0,0,0,.81-6.16Z" fill="#ededed"/><path d="M273.6,92.07a3.13,3.13,0,0,0-3.13,3.13c0,33.18-59.26,60.18-132.1,60.18-4.29,0-8.64-.1-12.91-.29a3.23,3.23,0,0,0-3.27,3,3.14,3.14,0,0,0,3,3.27c4.36.19,8.79.29,13.18.29,77.58,0,138.36-29.18,138.36-66.44A3.13,3.13,0,0,0,273.6,92.07Z" fill="#ededed"/><path d="M204.56,43.22c22.21,6,40.12,14.65,51.79,25.16a3.13,3.13,0,0,0,4.19-4.65c-12.4-11.18-31.2-20.36-54.36-26.56a3.13,3.13,0,1,0-1.62,6Z" fill="#ededed"/><path d="M67.59,63.31C49.53,72.78,40,84.92,40.6,97.48S52,121.13,71,128.68c19.83,7.91,44.63,11.75,70,11.75,34.13,0,69.3-7,94.73-20.29a3.13,3.13,0,0,0-2.91-5.55c-42.93,22.52-114.49,26.23-159.51,8.27C57,116.37,47.37,107,46.86,97.16S55,77,70.5,68.86c27.22-14.28,72.6-16.63,101.14-5.25,10,4,15.91,9.63,16.22,15.46s-5,12.06-14.53,17.06c-17.17,9-45.79,10.49-63.79,3.31a3.13,3.13,0,1,0-2.32,5.82c19.48,7.77,50.45,6.16,69-3.58,12-6.28,18.31-14.42,17.87-22.93s-7.59-16-20.15-21C143.94,45.81,96.22,48.29,67.59,63.31Z" fill="#ededed"/><path d="M128.45,89.7a3.13,3.13,0,0,0,3.13,3.14c7.52,0,14.47-1.32,19.07-3.62a3.13,3.13,0,1,0-2.8-5.61c-3.7,1.86-9.79,3-16.27,3A3.13,3.13,0,0,0,128.45,89.7Z" fill="#ededed"/><path d="M139.36,71a59.29,59.29,0,0,0-7.78-.49c-8.49,0-16.22,1.69-20.67,4.51a3.13,3.13,0,1,0,3.35,5.29c3.39-2.15,10.19-3.54,17.32-3.54a53.71,53.71,0,0,1,7,.44,3.13,3.13,0,1,0,.82-6.21Z" fill="#ededed"/></g></g></svg>