<svg xmlns="http://www.w3.org/2000/svg" viewBox="0 0 210.94 210.94"><g id="Layer_2" data-name="Layer 2"><g id="Layer_1-2" data-name="Layer 1"><path d="M105.47,0A105.47,105.47,0,1,0,210.94,105.47,105.58,105.58,0,0,0,105.47,0Zm0,204.68a99.21,99.21,0,1,1,99.21-99.21A99.32,99.32,0,0,1,105.47,204.68Z" fill="#ededed"/><path d="M34.33,91.27A11.75,11.75,0,1,0,22.58,79.52,11.76,11.76,0,0,0,34.33,91.27Zm0-17.23a5.48,5.48,0,1,1-5.48,5.48A5.49,5.49,0,0,1,34.33,74Z" fill="#ededed"/><path d="M76.52,84.09A11.75,11.75,0,1,0,64.77,95.84,11.76,11.76,0,0,0,76.52,84.09ZM64.77,89.57a5.48,5.48,0,1,1,5.48-5.48A5.49,5.49,0,0,1,64.77,89.57Z" fill="#ededed"/><path d="M96.54,99.88A11.75,11.75,0,1,0,84.79,88.13,11.76,11.76,0,0,0,96.54,99.88Zm0-17.23a5.49,5.49,0,1,1-5.48,5.48A5.49,5.49,0,0,1,96.54,82.65Z" fill="#ededed"/><path d="M176.55,120.35a13.32,13.32,0,1,0,13.31,13.32A13.34,13.34,0,0,0,176.55,120.35Zm0,20.36a7,7,0,1,1,7-7A7.05,7.05,0,0,1,176.55,140.71Z" fill="#ededed"/><path d="M155.44,157.16a11.75,11.75,0,1,0,11.75,11.75A11.76,11.76,0,0,0,155.44,157.16Zm0,17.23a5.48,5.48,0,1,1,5.49-5.48A5.49,5.49,0,0,1,155.44,174.39Z" fill="#ededed"/><path d="M101.82,42.92a11.75,11.75,0,1,0,11.75,11.75A11.76,11.76,0,0,0,101.82,42.92Zm0,17.23a5.48,5.48,0,1,1,5.48-5.48A5.49,5.49,0,0,1,101.82,60.15Z" fill="#ededed"/><path d="M128.83,62.39a11.75,11.75,0,1,0,11.75,11.75A11.76,11.76,0,0,0,128.83,62.39Zm0,17.23a5.48,5.48,0,1,1,5.49-5.48A5.49,5.49,0,0,1,128.83,79.62Z" fill="#ededed"/><path d="M99.43,132.16a13.88,13.88,0,1,0-11.28-16.07A14,14,0,0,0,99.43,132.16Zm-5.11-15a7.62,7.62,0,1,1,15,2.63,7.65,7.65,0,0,1-8.82,6.19,7.63,7.63,0,0,1-6.19-8.82Z" fill="#ededed"/><path d="M97.72,145.74A11.75,11.75,0,1,0,86,157.48,11.76,11.76,0,0,0,97.72,145.74Zm-17.24,0A5.49,5.49,0,1,1,86,151.22,5.49,5.49,0,0,1,80.48,145.74Z" fill="#ededed"/><path d="M94.58,161.62a16.72,16.72,0,1,0,16.72,16.72A16.74,16.74,0,0,0,94.58,161.62Zm0,27.17A10.45,10.45,0,1,1,105,178.34,10.46,10.46,0,0,1,94.58,188.79Z" fill="#ededed"/><path d="M51.56,151.22A11.75,11.75,0,1,0,63.31,163,11.76,11.76,0,0,0,51.56,151.22Zm0,17.23A5.49,5.49,0,1,1,57,163,5.49,5.49,0,0,1,51.56,168.45Z" fill="#ededed"/><path d="M64.77,66.39A17.13,17.13,0,1,0,47.64,49.26,17.16,17.16,0,0,0,64.77,66.39Zm0-28A10.86,10.86,0,1,1,53.91,49.26,10.87,10.87,0,0,1,64.77,38.4Z" fill="#ededed"/><path d="M138.88,57.8a17.13,17.13,0,1,0-17.13-17.12A17.14,17.14,0,0,0,138.88,57.8Zm0-28A10.86,10.86,0,1,1,128,40.68,10.88,10.88,0,0,1,138.88,29.82Z" fill="#ededed"/><path d="M172.73,94.38a17.13,17.13,0,1,0-17.12-17.13A17.15,17.15,0,0,0,172.73,94.38Zm0-28a10.86,10.86,0,1,1-10.86,10.86A10.88,10.88,0,0,1,172.73,66.39Z" fill="#ededed"/><path d="M136.07,145.31a17.13,17.13,0,1,0-17.13-17.12A17.14,17.14,0,0,0,136.07,145.31Zm0-28a10.87,10.87,0,1,1-10.86,10.87A10.89,10.89,0,0,1,136.07,117.32Z" fill="#ededed"/><path d="M53,126.62a17.13,17.13,0,1,0-17.13,17.13A17.15,17.15,0,0,0,53,126.62ZM35.87,137.48a10.86,10.86,0,1,1,10.86-10.86A10.87,10.87,0,0,1,35.87,137.48Z" fill="#ededed"/><path d="M99.69,38.75A12.07,12.07,0,1,0,87.62,26.68,12.08,12.08,0,0,0,99.69,38.75Zm0-17.87a5.8,5.8,0,1,1-5.81,5.8A5.81,5.81,0,0,1,99.69,20.88Z" fill="#ededed"/><circle cx="150.06" cy="85.98" r="3.23" fill="#ededed"/><circle cx="191.93" cy="98.02" r="3.23" fill="#ededed"/><circle cx="155.44" cy="145.73" r="3.23" fill="#ededed"/><circle cx="119.05" cy="93.52" r="3.23" fill="#ededed"/><circle cx="73.39" cy="124.95" r="3.23" fill="#ededed"/><circle cx="72.3" cy="161.86" r="3.23" fill="#ededed"/><path d="M68,180a3.23,3.23,0,1,0,3.23,3.23A3.23,3.23,0,0,0,68,180Z" fill="#ededed"/><path d="M188.7,109.14a3.23,3.23,0,1,0,3.23,3.23A3.23,3.23,0,0,0,188.7,109.14Z" fill="#ededed"/><path d="M84.27,74.13A3.23,3.23,0,1,0,81,70.9,3.22,3.22,0,0,0,84.27,74.13Z" fill="#ededed"/><path d="M148.09,62.29a3.23,3.23,0,1,0,3.24,3.23A3.23,3.23,0,0,0,148.09,62.29Z" fill="#ededed"/><circle cx="162.31" cy="114.19" r="3.23" fill="#ededed"/><path d="M167.78,52.49a3.23,3.23,0,1,0-3.23-3.23A3.22,3.22,0,0,0,167.78,52.49Z" fill="#ededed"/><circle cx="120.22" cy="20.22" r="3.23" fill="#ededed"/><circle cx="64.77" cy="110.96" r="3.23" fill="#ededed"/><path d="M32.63,149.43a3.24,3.24,0,1,0,3.23,3.24A3.24,3.24,0,0,0,32.63,149.43Z" fill="#ededed"/><circle cx="79.77" cy="100.19" r="3.23" fill="#ededed"/><circle cx="108.62" cy="153.63" r="3.23" fill="#ededed"/><path d="M124.54,168.44a3.23,3.23,0,1,0,3.9,2.38A3.24,3.24,0,0,0,124.54,168.44Z" fill="#ededed"/><path d="M137.45,181.34a3.24,3.24,0,1,0,3.23,3.23A3.23,3.23,0,0,0,137.45,181.34Z" fill="#ededed"/><path d="M118.84,187.81a3.23,3.23,0,1,0,3.23,3.23A3.23,3.23,0,0,0,118.84,187.81Z" fill="#ededed"/><path d="M172.73,155.4a3.23,3.23,0,1,0,3.23,3.23A3.23,3.23,0,0,0,172.73,155.4Z" fill="#ededed"/><circle cx="156.52" cy="99.98" r="3.23" fill="#ededed"/><circle cx="174.24" cy="105.47" r="3.23" fill="#ededed"/><path d="M129.58,153.72a3.23,3.23,0,1,0,2.4,3.88A3.23,3.23,0,0,0,129.58,153.72Z" fill="#ededed"/><path d="M112.86,136a3.23,3.23,0,1,0,3.23,3.23A3.23,3.23,0,0,0,112.86,136Z" fill="#ededed"/><circle cx="137.45" cy="99.98" r="3.23" fill="#ededed"/><path d="M77.35,26.68a3.23,3.23,0,1,0-3.23-3.23A3.22,3.22,0,0,0,77.35,26.68Z" fill="#ededed"/><path d="M20.89,96.75A3.24,3.24,0,1,0,17.65,100,3.23,3.23,0,0,0,20.89,96.75Z" fill="#ededed"/><circle cx="46.17" cy="100.19" r="3.23" fill="#ededed"/><path d="M60.17,137.38a3.23,3.23,0,1,0,3.23,3.23A3.23,3.23,0,0,0,60.17,137.38Z" fill="#ededed"/></g></g></svg>