<svg xmlns="http://www.w3.org/2000/svg" viewBox="0 0 199.98 269.81"><g id="Layer_2" data-name="Layer 2"><g id="Layer_1-2" data-name="Layer 1"><path d="M200,146.32a100,100,0,0,0-47.27-84.9,3.53,3.53,0,0,0-.32-.21,99.34,99.34,0,0,0-49.27-14.8V22.61a11.54,11.54,0,1,0-6.26,0V46.41a99.93,99.93,0,0,0-57,179.74L31.41,238a8.15,8.15,0,0,0,1.33,10.91c16.11,14.07,38,20.92,66.82,20.92h.49c29.1-.08,51.08-7,67.19-21.28a8.14,8.14,0,0,0,1.28-10.92l-8.33-11.52A99.88,99.88,0,0,0,200,146.32ZM94.69,11.55A5.29,5.29,0,1,1,100,16.83,5.3,5.3,0,0,1,94.69,11.55ZM6.27,146.32a93.67,93.67,0,0,1,135.6-83.81c-32.66,8-59,30.28-68.85,58.76-.38,0-.74,0-1.12,0A35.15,35.15,0,1,0,82.25,190c13.2,19.82,34.52,34.13,59.6,40.19A93.65,93.65,0,0,1,6.27,146.32ZM71.9,185.24a28.88,28.88,0,1,1,28.88-28.88A28.91,28.91,0,0,1,71.9,185.24Zm91.54,56a1.92,1.92,0,0,1-.34,2.56C148.17,257,127.54,263.47,100,263.54h-.48c-27.27,0-47.78-6.33-62.69-19.36a1.91,1.91,0,0,1-.36-2.56L45,229.76a99.7,99.7,0,0,0,107.57,1.57c.09-.07.19-.11.27-.18q1.14-.71,2.25-1.44Zm-9.06-18.7a2.57,2.57,0,0,0-.45.2,3.18,3.18,0,0,0-.3.33c-1.16.81-2.34,1.6-3.54,2.36-26-4.54-48.37-18.26-61.94-38A35.12,35.12,0,0,0,79.4,122C89.58,94.26,116.9,73,150.1,67.18a93.61,93.61,0,0,1,4.28,155.4Z" fill="#ededed"/><path d="M164.56,98a3.13,3.13,0,0,0-5,3.76,74.3,74.3,0,0,1,14.15,34.39,3.13,3.13,0,0,0,3.1,2.71l.43,0a3.14,3.14,0,0,0,2.68-3.53A80.64,80.64,0,0,0,164.56,98Z" fill="#ededed"/><path d="M142.63,77.83a3.14,3.14,0,0,0-3.32,5.32,74.71,74.71,0,0,1,10.94,8.31,3.14,3.14,0,0,0,4.24-4.62A81.44,81.44,0,0,0,142.63,77.83Z" fill="#ededed"/><path d="M71.9,134.34a22,22,0,1,0,22,22A22,22,0,0,0,71.9,134.34Zm0,37.78a15.76,15.76,0,1,1,15.75-15.76A15.78,15.78,0,0,1,71.9,172.12Z" fill="#ededed"/></g></g></svg>