<svg xmlns="http://www.w3.org/2000/svg" viewBox="0 0 210.94 210.94"><g id="Layer_2" data-name="Layer 2"><g id="Layer_1-2" data-name="Layer 1"><path d="M210.94,105.47a104.77,104.77,0,0,0-13.16-50.95,2.51,2.51,0,0,0-.26-.45A106.72,106.72,0,0,0,189,41.14a3,3,0,0,0-.47-.59,105.28,105.28,0,0,0-166.06,0,2.77,2.77,0,0,0-.47.6,105.83,105.83,0,0,0-8.55,12.92,3.3,3.3,0,0,0-.26.45,105.3,105.3,0,0,0,32.42,137.7c.05.05.12.08.17.13a105.21,105.21,0,0,0,119.45,0c.05-.05.12-.07.16-.12A105.41,105.41,0,0,0,210.94,105.47Zm-48.88,81.42H121.53a3.13,3.13,0,0,0,0,6.26h30.29a98.91,98.91,0,0,1-92.69,0H100a3.13,3.13,0,0,0,0-6.26H48.88a100.15,100.15,0,0,1-27.46-28.81H60.83a3.13,3.13,0,0,0,0-6.26h-43A98.67,98.67,0,0,1,6.34,108.61H86.68a3.14,3.14,0,0,0,0-6.27H6.34A98.72,98.72,0,0,1,18,58.78H60.83a3.14,3.14,0,0,0,0-6.27H21.65c1.41-2.23,2.9-4.42,4.49-6.53H132.88a3.13,3.13,0,0,0,0-6.26H31.28a99,99,0,0,1,148.39,0h-20a3.13,3.13,0,1,0,0,6.26h25.17c1.58,2.11,3.07,4.3,4.49,6.53H91a3.14,3.14,0,0,0,0,6.27H193a98.46,98.46,0,0,1,11.63,43.56H143.07a3.14,3.14,0,1,0,0,6.27H204.6a98.67,98.67,0,0,1-11.45,43.21H159.64a3.13,3.13,0,1,0,0,6.26h29.88A100.15,100.15,0,0,1,162.06,186.89Z" fill="#ededed"/><path d="M141.11,151.82H83.54a3.13,3.13,0,1,0,0,6.26h57.57a3.13,3.13,0,0,0,0-6.26Z" fill="#ededed"/></g></g></svg>