<svg xmlns="http://www.w3.org/2000/svg" viewBox="0 0 250.63 241.23"><g id="Layer_2" data-name="Layer 2"><g id="Layer_1-2" data-name="Layer 1"><path d="M167.13,74.62c-11.16,1.66-45.49,2.16-45.75,2.17s-34.67-.51-45.83-2.17c-4.52-.67-16.06-1.34-25.72,7s-14.34,22.53-14.34,42.57c0,45.15,5.16,59.6,39.31,68.33,12.61,3.22,29.58,4.84,46.54,4.84s33.93-1.62,46.54-4.84c34.15-8.73,39.31-23.18,39.31-68.33,0-20-4.82-34.36-14.34-42.57S171.64,74,167.13,74.62ZM41.75,124.18c0-18.13,4.1-30.86,12.17-37.82a25,25,0,0,1,16.53-5.84,28.63,28.63,0,0,1,4.17.3c11.58,1.72,45.25,2.21,46.76,2.23.7,0,9-.13,18.7-.45A147.5,147.5,0,0,0,117.81,102c-15.11,16-34.37,43.52-41.66,84.39C47.23,179,41.75,169,41.75,124.18ZM198.55,158c-3.4,2.68-18,12.47-49,13a10.46,10.46,0,1,0,0,6.27c23.13-.39,37.85-5.71,46-10-4.82,10.45-13.63,15.17-29.26,19.16-22.11,5.65-59.57,6.07-84.06,1.3,12.81-72.42,64.66-102.54,70.4-105.66,6.16-.32,11.82-.73,15.39-1.26s13-1.1,20.69,5.54c8.08,7,12.18,19.69,12.18,37.82C200.93,138.8,200.34,149.7,198.55,158Zm-54.71,16.2a4.21,4.21,0,1,1-4.21-4.21A4.21,4.21,0,0,1,143.84,174.22Z" fill="#ededed"/><path d="M249.3,58.93l-21.9-39A10.38,10.38,0,0,0,213.24,16L193,27.81a106.36,106.36,0,0,0-177.9,72.45h-4.5a9.37,9.37,0,0,0-9,6.82C.53,111,0,117.46,0,126.9c0,8.94.48,14.48,1.62,18.54a9.37,9.37,0,0,0,9,6.82h4.32V219c0,17.57,69.6,22.21,106.41,22.21S227.75,236.59,227.75,219V152.26h4.32a9.37,9.37,0,0,0,9-6.82c1.14-4.06,1.62-9.6,1.62-18.54,0-9.44-.53-15.93-1.62-19.82a9.37,9.37,0,0,0-9-6.82h-4.51a106,106,0,0,0-2.05-15.64L245.33,73a10.36,10.36,0,0,0,4-14.11ZM10.61,146a3,3,0,0,1-3-2.24c-1.23-4.39-1.38-11.31-1.38-16.85,0-8.74.46-14.84,1.38-18.13a3,3,0,0,1,3-2.24h4.32V146Zm110.73,89C56.54,235,21.19,224.43,21.19,219V204.15C39.09,214.92,91.2,218,121.34,218s82.25-3.12,100.14-13.89V219C221.48,224.43,186.14,235,121.34,235Zm0-23.18c-64.8,0-100.15-10.54-100.15-15.95v-89.5a100.15,100.15,0,0,1,200.29,0v89.5C221.48,201.24,186.14,211.78,121.34,211.78ZM235,108.77c.92,3.29,1.38,9.39,1.38,18.13,0,5.54-.15,12.46-1.38,16.85a3.05,3.05,0,0,1-3,2.24h-4.32V106.53h4.32A3.05,3.05,0,0,1,235,108.77Zm9.18-43.66a4.14,4.14,0,0,1-2,2.49L224,78.27a106.19,106.19,0,0,0-26.3-45.92l18.69-10.93A4.12,4.12,0,0,1,221.94,23l21.89,39A4.07,4.07,0,0,1,244.21,65.11Z" fill="#ededed"/><path d="M221.14,46.41a8.19,8.19,0,0,0,3.13-11.15,8.2,8.2,0,0,0-11.15-3.13,8.19,8.19,0,0,0,8,14.28ZM219,39.79a1.87,1.87,0,0,1-.91,1.15,1.93,1.93,0,0,1-2.62-.73,1.93,1.93,0,0,1,.74-2.62,2,2,0,0,1,.94-.24A1.91,1.91,0,0,1,219,39.79Z" fill="#ededed"/><path d="M223.42,50.47a8.19,8.19,0,0,0,8,14.28h0a8.19,8.19,0,1,0-8-14.28Zm5,8.81a1.92,1.92,0,0,1-1.89-3.35,1.88,1.88,0,0,1,.94-.24,1.92,1.92,0,0,1,1,3.59Z" fill="#ededed"/></g></g></svg>