<svg xmlns="http://www.w3.org/2000/svg" viewBox="0 0 184.4 285.09"><g id="Layer_2" data-name="Layer 2"><g id="Layer_1-2" data-name="Layer 1"><path d="M64.22,61.21A24.52,24.52,0,0,0,88.83,36.84c0-12-9-18.91-24.61-18.91S39.61,24.82,39.61,36.84A24.52,24.52,0,0,0,64.22,61.21Zm0-37c12.18,0,18.35,4.25,18.35,12.64a18.35,18.35,0,0,1-36.69,0C45.88,28.45,52.05,24.2,64.22,24.2Z" fill="#ededed"/><path d="M179.22,24.69l-1.18-1a14.47,14.47,0,0,0-20.39,1.79l-3.36,4c0,.05,0,.11-.08.16l0,0c-9.63,13-25,18.79-37.85,21.36V35.26a12.56,12.56,0,0,0-12.6-12.5H98.41a37.06,37.06,0,0,0-68.38,0H26.52V8.82a3.14,3.14,0,0,0-6.27,0V23.41a12.48,12.48,0,0,0-8.79,11.85V72a2.84,2.84,0,0,0,.1.49A54.66,54.66,0,0,0,0,105.94v65.37a14.5,14.5,0,0,0,14.48,14.48H16a14.37,14.37,0,0,0,8.21-2.58v72.23c-.53,0-1.06-.08-1.6-.08a20.94,20.94,0,0,0-21,20.83,9,9,0,0,0,9,8.9H57.9A3.14,3.14,0,0,0,61,282v-72.8a2.9,2.9,0,0,1,5.8,0V282A3.14,3.14,0,0,0,70,285.09H117.3a9,9,0,0,0,9-8.9,21,21,0,0,0-21-20.83c-.34,0-.68,0-1,0V166.09h-.07c0-.12.07-.23.07-.35V151.89a12.54,12.54,0,0,0,12.11-12.46V85.82c39-7,59.9-34.76,61.38-36.78l3.3-3.95a14.48,14.48,0,0,0-1.79-20.4Zm-78,11.89a36.25,36.25,0,0,0-.8-7.56h3.36a6.3,6.3,0,0,1,6.34,6.24V52.09a103.18,103.18,0,0,1-12.9.94A35.92,35.92,0,0,0,101.17,36.58ZM64.22,6.27A30.52,30.52,0,0,1,94.9,36.58a30.68,30.68,0,0,1-61.36,0A30.52,30.52,0,0,1,64.22,6.27Zm-46.49,29A6.3,6.3,0,0,1,24.07,29h4a35.86,35.86,0,0,0,4.75,26.76,55.21,55.21,0,0,0-15.1,10ZM16,179.52H14.48a8.22,8.22,0,0,1-8.21-8.21v-2.09h18v2.09A8.22,8.22,0,0,1,16,179.52Zm94.06-40.09a6.27,6.27,0,0,1-5.85,6.19V97.1a10.77,10.77,0,0,1,5.85-9.59Zm2.59-59.28A17.09,17.09,0,0,0,98,97.1v68.64a2.17,2.17,0,0,0,.07.35H98v90.28a26.63,26.63,0,0,0-12,7.13,3.13,3.13,0,1,0,4.49,4.36,20.51,20.51,0,0,1,14.83-6.23A14.67,14.67,0,0,1,120,276.19a2.67,2.67,0,0,1-2.69,2.63H73.1V261.63h6.62a3.14,3.14,0,0,0,0-6.27H73.1V209.15a9.17,9.17,0,0,0-18.33,0v46.21H48.15a3.14,3.14,0,1,0,0,6.27h6.62v17.19H10.57a2.67,2.67,0,0,1-2.7-2.63,14.67,14.67,0,0,1,14.75-14.56,20.51,20.51,0,0,1,14.83,6.23,3.13,3.13,0,1,0,4.49-4.36,26.64,26.64,0,0,0-11.45-7V111a3.14,3.14,0,0,0-6.27,0V163H6.27v-57a49,49,0,0,1,30.45-45,37,37,0,0,0,56.45-1.69c.62,0,1.89.08,3.7.08,11.17,0,42.21-2.08,60.24-23.37l13.78,11.56C165.06,54.39,145,75.25,112.66,80.15Zm63.55-39.08-1.34,1.59L161.11,31.13l1.34-1.6a8.2,8.2,0,0,1,11.57-1h0l1.17,1A8.21,8.21,0,0,1,176.21,41.07Z" fill="#ededed"/><path d="M80.35,88.43H48.08a8.49,8.49,0,0,0-8.47,8.48v19.94a8.48,8.48,0,0,0,8.47,8.47H80.35a8.48,8.48,0,0,0,8.47-8.47V96.91A8.49,8.49,0,0,0,80.35,88.43Zm2.21,28.42a2.21,2.21,0,0,1-2.21,2.21H48.08a2.21,2.21,0,0,1-2.2-2.21V96.91a2.21,2.21,0,0,1,2.2-2.21H80.35a2.21,2.21,0,0,1,2.21,2.21Z" fill="#ededed"/></g></g></svg>