<svg xmlns="http://www.w3.org/2000/svg" viewBox="0 0 261.2 254.35"><g id="Layer_2" data-name="Layer 2"><g id="Layer_1-2" data-name="Layer 1"><path d="M199,153.82a12.17,12.17,0,0,0-4.08-7.46L164,119.65a15.93,15.93,0,0,1-5.51-11l-4.65-61.81a38.39,38.39,0,0,0-4.14-14.71L142,17.09a12.79,12.79,0,0,0-22.78,0l-7.72,15.09a38.48,38.48,0,0,0-4.13,14.71l-4.65,61.81a16,16,0,0,1-5.51,11L66.28,146.36a12.13,12.13,0,0,0-4.09,7.46l-1.15,8a12.08,12.08,0,0,0,9.88,13.7L106.44,177l-.56,3.09a10.26,10.26,0,0,0,4.66,10.56c4.33,2.66,10.34,2.67,17.93,2.62h6.36c6.63,0,11.94-.2,15.87-2.62A10.29,10.29,0,0,0,155.36,180l-.57-3.11,35.1-1.4.43-.05a12.09,12.09,0,0,0,9.88-13.7Zm-51.62,31.44c-2.81,1.73-8.29,1.72-14.64,1.69h-4.33c-6.35,0-11.82,0-14.64-1.69a4,4,0,0,1-1.77-4.1l7.27-39.81a11.49,11.49,0,0,1,22.62,0l7.26,39.81A4,4,0,0,1,147.42,185.26Zm42-16-35.75,1.42-5.57-30.48a17.75,17.75,0,0,0-34.94,0l-5.57,30.51-35.75-1.45a5.85,5.85,0,0,1-4.59-6.6l1.16-8a5.83,5.83,0,0,1,2-3.61l30.95-26.72A22.21,22.21,0,0,0,109,109.17l4.64-61.81A32.43,32.43,0,0,1,117.09,35l7.72-15.09a6.53,6.53,0,0,1,11.62,0L144.15,35a32.24,32.24,0,0,1,3.46,12.33l4.65,61.81a22.17,22.17,0,0,0,7.66,15.22l31,26.72a5.83,5.83,0,0,1,2,3.61l1.16,8A5.85,5.85,0,0,1,189.41,169.28Z" fill="#ededed"/><path d="M118.21,211.85a3.14,3.14,0,0,0-3.14,3.13v24.87a3.14,3.14,0,0,0,6.27,0V215A3.13,3.13,0,0,0,118.21,211.85Z" fill="#ededed"/><path d="M130.4,204.34a3.13,3.13,0,0,0-3.13,3.14v43.74a3.14,3.14,0,0,0,6.27,0V207.48A3.14,3.14,0,0,0,130.4,204.34Z" fill="#ededed"/><path d="M142.6,211.85a3.13,3.13,0,0,0-3.13,3.13v15a3.14,3.14,0,0,0,6.27,0V215A3.14,3.14,0,0,0,142.6,211.85Z" fill="#ededed"/><path d="M33.52,16.76A16.76,16.76,0,1,0,16.76,33.52,16.78,16.78,0,0,0,33.52,16.76ZM16.76,27.25A10.49,10.49,0,1,1,27.25,16.76,10.5,10.5,0,0,1,16.76,27.25Z" fill="#ededed"/><path d="M249.41,81.78A11.79,11.79,0,1,0,261.2,93.57,11.8,11.8,0,0,0,249.41,81.78Zm0,17.32a5.53,5.53,0,1,1,5.53-5.53A5.53,5.53,0,0,1,249.41,99.1Z" fill="#ededed"/><path d="M204.89,66.84l-3.27-3.27,3.27-3.27a3.13,3.13,0,1,0-4.43-4.43l-3.27,3.27-3.27-3.27a3.13,3.13,0,1,0-4.43,4.43l3.27,3.27-3.27,3.27a3.13,3.13,0,1,0,4.43,4.43L197.19,68l3.27,3.27a3.13,3.13,0,1,0,4.43-4.43Z" fill="#ededed"/><path d="M62,108.29a3.14,3.14,0,0,0,2.22-5.35l-3.27-3.27,3.27-3.27A3.13,3.13,0,0,0,59.75,92l-3.27,3.27L53.21,92a3.13,3.13,0,0,0-4.43,4.43l3.27,3.27-3.27,3.27a3.13,3.13,0,1,0,4.43,4.43l3.27-3.27,3.27,3.27A3.12,3.12,0,0,0,62,108.29Z" fill="#ededed"/><path d="M43.61,234.61H39V230a3.13,3.13,0,1,0-6.26,0v4.62H28.1a3.14,3.14,0,1,0,0,6.27h4.62v4.62a3.13,3.13,0,1,0,6.26,0v-4.62h4.63a3.14,3.14,0,0,0,0-6.27Z" fill="#ededed"/><path d="M9,176.27a3.19,3.19,0,1,0,3.18,3.19A3.18,3.18,0,0,0,9,176.27Z" fill="#ededed"/><path d="M232.6,139.14a3.19,3.19,0,1,0-3.18-3.19A3.19,3.19,0,0,0,232.6,139.14Z" fill="#ededed"/><circle cx="190.66" cy="13.25" r="3.18" fill="#ededed"/><path d="M75.79,33.56a3.18,3.18,0,1,0-3.18-3.18A3.18,3.18,0,0,0,75.79,33.56Z" fill="#ededed"/><path d="M9,70.35a3.18,3.18,0,1,0,3.18,3.18A3.18,3.18,0,0,0,9,70.35Z" fill="#ededed"/><path d="M254.89,6.74a3.19,3.19,0,1,0-3.18-3.19A3.19,3.19,0,0,0,254.89,6.74Z" fill="#ededed"/><path d="M236.42,202.74a25.65,25.65,0,1,0,15.4,12.18A25.43,25.43,0,0,0,236.42,202.74Zm2.45,41.6a19.39,19.39,0,0,1-26.37-7.48,19.76,19.76,0,0,1-1.42-3.2L227,224.8a3.13,3.13,0,1,0-3-5.47l-13.84,7.72A19.37,19.37,0,0,1,246.35,218a20.12,20.12,0,0,1,1.59,3.72,4.06,4.06,0,0,0-.59.19l-18,10.06a3.13,3.13,0,1,0,3,5.47l16.38-9.14A19.39,19.39,0,0,1,238.87,244.34Z" fill="#ededed"/></g></g></svg>