<svg xmlns="http://www.w3.org/2000/svg" viewBox="0 0 235.92 220.49"><g id="Layer_2" data-name="Layer 2"><g id="Layer_1-2" data-name="Layer 1"><path d="M201.67,143.62a14.09,14.09,0,0,0-9.43,3.66L132.3,119.57c0-.14,0-.27,0-.41a8.62,8.62,0,0,0-12-7.93l-18.2-22.71a11.38,11.38,0,0,0-9-18.44,11.78,11.78,0,0,0-2.68.34L78.33,51.1A10.43,10.43,0,0,0,61.74,38.46L28.23,26.24a14,14,0,0,0,.21-2.06A14.21,14.21,0,1,0,26,32.1L59.39,44.27c0,.28-.08.54-.08.82A10.49,10.49,0,0,0,69.78,55.56a10.16,10.16,0,0,0,3.54-.66L85,73.5A11.39,11.39,0,0,0,97.09,92.23l18.78,23.43a8.54,8.54,0,0,0,2.81,10.44l-4.51,23.05-.33,0a11.45,11.45,0,1,0,6.66,20.72l43.09,24.21a11.93,11.93,0,0,0-.17,1.71,11.45,11.45,0,0,0,22.89,0,11.32,11.32,0,0,0-2.14-6.62l13.47-17.78a14.17,14.17,0,1,0,4-27.74ZM14.24,32.12a7.94,7.94,0,1,1,7.93-7.94A7.94,7.94,0,0,1,14.24,32.12Zm111.84,87a2.35,2.35,0,1,1-2.35-2.35A2.35,2.35,0,0,1,126.08,119.16ZM65.58,45.09a4.21,4.21,0,1,1,4.2,4.21A4.2,4.2,0,0,1,65.58,45.09ZM88,81.52a5.18,5.18,0,1,1,5.18,5.18A5.18,5.18,0,0,1,88,81.52Zm25.86,84.23a5.18,5.18,0,1,1,5.18-5.18A5.18,5.18,0,0,1,113.84,165.75Zm61,35.19a5.18,5.18,0,1,1,5.18-5.18A5.18,5.18,0,0,1,174.87,200.94Zm4.42-15.73a11.23,11.23,0,0,0-4.42-.9,11.4,11.4,0,0,0-8.65,4l-41.79-23.48a11.34,11.34,0,0,0-4.25-13.81l4.57-23.38a8.54,8.54,0,0,0,5-2.37l58.77,27.17a14,14,0,0,0,3.6,15.79Zm22.38-19.46a7.93,7.93,0,1,1,7.93-7.93A7.94,7.94,0,0,1,201.67,165.75Z" fill="#ededed"/><path d="M220.48,61a3.13,3.13,0,1,0,0-6.26h-4.62V50.16a3.13,3.13,0,1,0-6.26,0v4.62H205A3.13,3.13,0,1,0,205,61h4.63v4.63a3.13,3.13,0,0,0,6.26,0V61Z" fill="#ededed"/><path d="M32.48,128.62a3.14,3.14,0,0,0-4.43,0l-3.26,3.27-3.27-3.27a3.13,3.13,0,0,0-4.43,4.43l3.27,3.27-3.27,3.27a3.14,3.14,0,0,0,2.21,5.35,3.16,3.16,0,0,0,2.22-.92l3.27-3.27L28.05,144a3.16,3.16,0,0,0,2.22.92,3.14,3.14,0,0,0,2.21-5.35l-3.26-3.27,3.26-3.27A3.12,3.12,0,0,0,32.48,128.62Z" fill="#ededed"/><path d="M84.87,206.42H80.25v-4.63a3.13,3.13,0,1,0-6.26,0v4.63H69.36a3.13,3.13,0,1,0,0,6.26H74v4.63a3.13,3.13,0,1,0,6.26,0v-4.63h4.62a3.13,3.13,0,1,0,0-6.26Z" fill="#ededed"/><path d="M108.76,16.32a3.15,3.15,0,0,0,4.43,0l3.27-3.27,3.27,3.27a3.13,3.13,0,0,0,4.43-4.43l-3.27-3.27,3.27-3.27A3.13,3.13,0,0,0,119.73.92l-3.27,3.27L113.19.92a3.13,3.13,0,1,0-4.43,4.43L112,8.62l-3.27,3.27A3.14,3.14,0,0,0,108.76,16.32Z" fill="#ededed"/><path d="M140.54,57.91a3.18,3.18,0,1,0-3.18-3.18A3.18,3.18,0,0,0,140.54,57.91Z" fill="#ededed"/><path d="M232.73,109.68a3.18,3.18,0,1,0,3.19,3.18A3.19,3.19,0,0,0,232.73,109.68Z" fill="#ededed"/><path d="M3.18,200.89a3.18,3.18,0,1,0,3.18,3.18A3.18,3.18,0,0,0,3.18,200.89Z" fill="#ededed"/><path d="M222.3,214.12a3.19,3.19,0,1,0,3.18,3.18A3.18,3.18,0,0,0,222.3,214.12Z" fill="#ededed"/><circle cx="24.79" cy="74.39" r="3.18" fill="#ededed"/></g></g></svg>