<svg xmlns="http://www.w3.org/2000/svg" viewBox="0 0 242.73 222.18"><g id="Layer_2" data-name="Layer 2"><g id="Layer_1-2" data-name="Layer 1"><path d="M239.59,14a3.13,3.13,0,1,0,0-6.26H235V3.13a3.13,3.13,0,1,0-6.26,0V7.76h-4.63a3.13,3.13,0,0,0,0,6.26h4.63v4.62a3.13,3.13,0,1,0,6.26,0V14Z" fill="#ededed"/><path d="M16.32,171.42a3.14,3.14,0,0,0-4.43,0l-3.27,3.27-3.27-3.27a3.13,3.13,0,0,0-4.43,4.43l3.27,3.27L.92,182.39a3.13,3.13,0,1,0,4.43,4.43l3.27-3.27,3.27,3.27a3.12,3.12,0,0,0,2.21.92,3.14,3.14,0,0,0,2.22-5.35l-3.27-3.27,3.27-3.27A3.14,3.14,0,0,0,16.32,171.42Z" fill="#ededed"/><path d="M238.68,203.46a3.18,3.18,0,1,0,3.18,3.18A3.18,3.18,0,0,0,238.68,203.46Z" fill="#ededed"/><path d="M18.19,7.71a3.18,3.18,0,1,0,3.18,3.18A3.18,3.18,0,0,0,18.19,7.71Z" fill="#ededed"/><path d="M181.41,62.1a15.07,15.07,0,0,0-25.35-16A74.73,74.73,0,0,0,55,114.94a12.31,12.31,0,0,0,3.63,24,74.62,74.62,0,0,0,108.94,41.45A18.14,18.14,0,0,0,193.41,155a74.58,74.58,0,0,0-12-92.93ZM167.83,46.63A8.88,8.88,0,1,1,159,55.51,8.89,8.89,0,0,1,167.83,46.63Zm-115.14,80a6.1,6.1,0,1,1,6.09,6.09A6.09,6.09,0,0,1,52.69,126.64ZM179.85,179a11.91,11.91,0,1,1,11.9-11.9A11.92,11.92,0,0,1,179.85,179Zm8.62-27.89a17.91,17.91,0,0,0-8.62-2.19,18.2,18.2,0,0,0-18.17,18.18,18,18,0,0,0,2,8.33,68.38,68.38,0,0,1-99-38,12.31,12.31,0,0,0-3.42-22.89A68.31,68.31,0,0,1,153.2,51.78a15,15,0,0,0,14.63,18.87,15.05,15.05,0,0,0,9.7-3.6,68.36,68.36,0,0,1,10.94,84.05Z" fill="#ededed"/><path d="M129.7,10.76a104.39,104.39,0,0,0-42,8.77A18.13,18.13,0,0,0,57.51,39.46a105.16,105.16,0,0,0-3.76,149.42,21.68,21.68,0,0,0,35.79,24.45A105.27,105.27,0,1,0,129.7,10.76ZM73.43,18.88A11.88,11.88,0,1,1,61.55,30.76,11.89,11.89,0,0,1,73.43,18.88Zm-1.35,197a15.45,15.45,0,1,1,15.45-15.45A15.47,15.47,0,0,1,72.08,215.92ZM129.7,215a98.35,98.35,0,0,1-37.19-7.26,21.68,21.68,0,0,0-34.66-23.67,98.9,98.9,0,0,1,3.6-139.76A18.11,18.11,0,0,0,90.64,25.06,99,99,0,1,1,129.7,215Z" fill="#ededed"/><path d="M129.7,86.29A29.74,29.74,0,1,0,159.44,116,29.77,29.77,0,0,0,129.7,86.29Zm0,53.21A23.47,23.47,0,1,1,153.17,116,23.5,23.5,0,0,1,129.7,139.5Z" fill="#ededed"/><path d="M129.7,81.31a3.13,3.13,0,0,0,3.13-3.13V71.87a3.13,3.13,0,0,0-6.26,0v6.31A3.13,3.13,0,0,0,129.7,81.31Z" fill="#ededed"/><path d="M129.7,150.75a3.13,3.13,0,0,0-3.13,3.13v6.31a3.13,3.13,0,1,0,6.26,0v-6.31A3.13,3.13,0,0,0,129.7,150.75Z" fill="#ededed"/><path d="M173.86,112.9h-6.31a3.13,3.13,0,0,0,0,6.26h6.31a3.13,3.13,0,0,0,0-6.26Z" fill="#ededed"/><path d="M91.85,112.9H85.54a3.13,3.13,0,0,0,0,6.26h6.31a3.13,3.13,0,1,0,0-6.26Z" fill="#ededed"/><path d="M158.68,140.58a3.13,3.13,0,0,0-4.43,4.43l4.46,4.46a3.13,3.13,0,1,0,4.43-4.43Z" fill="#ededed"/><path d="M100.72,91.48a3.13,3.13,0,0,0,4.43-4.43l-4.46-4.46A3.13,3.13,0,0,0,96.26,87Z" fill="#ededed"/><path d="M100.72,140.58,96.26,145a3.13,3.13,0,0,0,4.43,4.43l4.46-4.46a3.13,3.13,0,0,0-4.43-4.43Z" fill="#ededed"/><path d="M158.71,82.59l-4.46,4.46a3.13,3.13,0,1,0,4.43,4.43L163.14,87a3.13,3.13,0,1,0-4.43-4.43Z" fill="#ededed"/></g></g></svg>