<svg xmlns="http://www.w3.org/2000/svg" viewBox="0 0 210.94 210.94"><g id="Layer_2" data-name="Layer 2"><g id="Layer_1-2" data-name="Layer 1"><path d="M210.94,105.47a104.8,104.8,0,0,0-13.16-51,3.38,3.38,0,0,0-.24-.41,105.17,105.17,0,0,0-8.57-13,2.77,2.77,0,0,0-.47-.6,105.28,105.28,0,0,0-166.06,0,2.77,2.77,0,0,0-.47.6,105.09,105.09,0,0,0-8.56,13,2.44,2.44,0,0,0-.24.41A105.29,105.29,0,0,0,45.58,192.22c.05.05.12.08.17.13a105.22,105.22,0,0,0,119.44,0c.05,0,.12-.08.18-.13A105.4,105.4,0,0,0,210.94,105.47ZM6.35,108.61H204.6a98.54,98.54,0,0,1-11.45,43.21H17.79A98.53,98.53,0,0,1,6.35,108.61ZM18,58.78H193a98.46,98.46,0,0,1,11.63,43.56H6.35A98.58,98.58,0,0,1,18,58.78ZM26.14,46H184.81c1.59,2.11,3.07,4.3,4.49,6.53H21.65C23.06,50.28,24.55,48.09,26.14,46ZM105.47,6.27a99,99,0,0,1,74.2,33.45H31.28A99,99,0,0,1,105.47,6.27ZM59.13,193.15h92.69a98.91,98.91,0,0,1-92.69,0Zm102.93-6.26H48.88a100.15,100.15,0,0,1-27.46-28.81h168.1A100,100,0,0,1,162.06,186.89Z" fill="#ededed"/></g></g></svg>