<svg xmlns="http://www.w3.org/2000/svg" viewBox="0 0 197.25 220.5"><g id="Layer_2" data-name="Layer 2"><g id="Layer_1-2" data-name="Layer 1"><path d="M196.74,35.74,174.23,1.41a3.21,3.21,0,0,0-2-1.35,3.16,3.16,0,0,0-2.35.45L111.32,38.93a3.13,3.13,0,0,0-.9,4.34l2.6,4-56,36.69a3.15,3.15,0,0,0-.9,4.34l1.21,1.84-56,36.69a3.13,3.13,0,0,0-.9,4.34l8,12.25a3.14,3.14,0,0,0,4.34.9l56-36.69,1.21,1.83a3.08,3.08,0,0,0,2,1.35,2.7,2.7,0,0,0,.63.07,3.1,3.1,0,0,0,1.72-.52l29.56-19.38L48.77,208.4A6,6,0,1,0,54.46,211l51.88-110.46V209.23a6.08,6.08,0,1,0,6.26,0V100.57L164.49,211a6.09,6.09,0,1,0,5.68-2.63l-57.77-123,17.93-11.76,2.6,4a3.13,3.13,0,0,0,2,1.35,2.79,2.79,0,0,0,.64.07,3.13,3.13,0,0,0,1.72-.52l58.57-38.41A3.13,3.13,0,0,0,196.74,35.74ZM12.07,137.32l-4.6-7,53.33-35,4.6,7Zm61.5-33.95L63.12,87.44l53.33-35,6.87,10.47,3.57,5.45Zm62.88-31.83-2.6-4h0l-.23-.35L117.37,42.45l53.34-35,19.07,29.09Z" fill="#ededed"/></g></g></svg>