<svg xmlns="http://www.w3.org/2000/svg" viewBox="0 0 210.94 210.94"><g id="Layer_2" data-name="Layer 2"><g id="Layer_1-2" data-name="Layer 1"><path d="M209.94,119.84v0h0a105.93,105.93,0,0,0,1-14.34A104.75,104.75,0,0,0,197.4,53.86a3.39,3.39,0,0,0-.32-.56A105.34,105.34,0,0,0,30.86,31a3.26,3.26,0,0,0-.41.42,105.62,105.62,0,0,0-26,43.88c0,.09,0,.19-.08.28A105.42,105.42,0,0,0,172.29,187a2.69,2.69,0,0,0,.37-.3,105.89,105.89,0,0,0,31.47-44c0-.09.07-.19.11-.28A105,105,0,0,0,209.94,119.84Zm-39.56,24.68h26.28a98.62,98.62,0,0,1-8.19,15.19H137.89a27.14,27.14,0,0,0-15.53,4.77c-16.85,11.64-32,5-39.49,0a27.82,27.82,0,0,0-15.47-4.72H22.49A98.63,98.63,0,0,1,7.83,122.91H67.4a27.82,27.82,0,0,0,15.47-4.72c7.51-5,22.64-11.65,39.49,0A27.14,27.14,0,0,0,137.89,123H203.1a98.81,98.81,0,0,1-4,15.3H170.38a3.14,3.14,0,0,0,0,6.27ZM170,30.23H108.7a3.13,3.13,0,0,0,0,6.26h68a99.81,99.81,0,0,1,12.19,15.34H106.54a3.14,3.14,0,1,0,0,6.27h86.07a99.17,99.17,0,0,1,6.73,15.34H148.29a3.13,3.13,0,1,0,0,6.26h53a98.72,98.72,0,0,1,3.42,25.77,101.18,101.18,0,0,1-.65,11.21H137.89a20.94,20.94,0,0,1-12-3.65c-19.89-13.75-37.69-5.94-46.53,0a21.55,21.55,0,0,1-12,3.67H6.91a100.65,100.65,0,0,1-.64-11.18c0-1.39,0-2.78.1-4.16H67.19a3.14,3.14,0,0,0,0-6.27H6.82A98.18,98.18,0,0,1,9.68,79.7H48.56a3.13,3.13,0,0,0,0-6.26h-37A99.41,99.41,0,0,1,34.27,36.49H78.42a3.13,3.13,0,0,0,0-6.26H40.93a98.9,98.9,0,0,1,129.08,0Zm-.85,151.23H129.58a3.13,3.13,0,0,0,0,6.26h31.3a99,99,0,0,1-110.82,0H61.18a3.13,3.13,0,1,0,0-6.26H43.43a3.14,3.14,0,0,0-1.3.3A99.6,99.6,0,0,1,27,166H67.4a21.55,21.55,0,0,1,12,3.67c5.21,3.47,13.53,7.61,23.56,7.61,7,0,14.8-2,23-7.66a20.94,20.94,0,0,1,12-3.65H184A100.24,100.24,0,0,1,169.16,181.46Z" fill="#ededed"/><path d="M124.66,101.31h63.4a3.14,3.14,0,1,0,0-6.27h-63.4a3.14,3.14,0,1,0,0,6.27Z" fill="#ededed"/><path d="M86.27,57.17a3.54,3.54,0,0,0,.47.41c.18.09.34.19.53.28s.41.13.59.16a2.25,2.25,0,0,0,.63.06,1.94,1.94,0,0,0,.59-.06,3.27,3.27,0,0,0,.6-.16c.19-.09.38-.19.53-.28a1.72,1.72,0,0,0,.47-.41,2.54,2.54,0,0,0,.69-1A3.21,3.21,0,0,0,91.62,55a3,3,0,0,0-.25-1.19,2.54,2.54,0,0,0-.69-1,3.23,3.23,0,0,0-4.41,0,3.37,3.37,0,0,0-.69,1A3,3,0,0,0,85.36,55a3.18,3.18,0,0,0,.22,1.22A2.89,2.89,0,0,0,86.27,57.17Z" fill="#ededed"/><path d="M50.77,52.76a3.24,3.24,0,0,0-4.42,0,2.76,2.76,0,0,0-.69,1A3.21,3.21,0,0,0,45.41,55a3.41,3.41,0,0,0,.25,1.22,2.76,2.76,0,0,0,.69,1,2.07,2.07,0,0,0,.47.41l.54.28A3.16,3.16,0,0,0,48,58a2,2,0,0,0,.6.06,2.18,2.18,0,0,0,.62-.06,4.44,4.44,0,0,0,.6-.16c.19-.09.34-.19.53-.28a4.3,4.3,0,0,0,.47-.41A2.91,2.91,0,0,0,51.68,55a3,3,0,0,0-.22-1.19A3.19,3.19,0,0,0,50.77,52.76Z" fill="#ededed"/><path d="M69.41,74.34,68.94,74a2.5,2.5,0,0,0-.56-.29,2.09,2.09,0,0,0-.57-.18,2.94,2.94,0,0,0-1.81.18,3.81,3.81,0,0,0-1,.66,3.14,3.14,0,0,0,2.23,5.36,4.34,4.34,0,0,0,.62-.06,2.54,2.54,0,0,0,.57-.19,2.44,2.44,0,0,0,.56-.28,4.12,4.12,0,0,0,.47-.38,3.27,3.27,0,0,0,.91-2.22,2.57,2.57,0,0,0-.25-1.19A3.67,3.67,0,0,0,69.41,74.34Z" fill="#ededed"/><path d="M88.48,79.7h22.86a3.13,3.13,0,1,0,0-6.26H88.48a3.13,3.13,0,0,0,0,6.26Z" fill="#ededed"/><path d="M156.5,139.16a3.23,3.23,0,0,0-4.41,0,3,3,0,0,0-.69,1,3.06,3.06,0,0,0,.69,3.42,3,3,0,0,0,2.19.91,3.11,3.11,0,0,0,3.13-3.14,3.06,3.06,0,0,0-.22-1.19A3.11,3.11,0,0,0,156.5,139.16Z" fill="#ededed"/><path d="M79.22,182.39a3.2,3.2,0,0,0-3.42-.69,3.27,3.27,0,0,0-1,.69,3.22,3.22,0,0,0-.66,1,3.1,3.1,0,0,0-.25,1.19,3.26,3.26,0,0,0,.25,1.23,3.62,3.62,0,0,0,.66,1,3.18,3.18,0,0,0,4.45,0,3.73,3.73,0,0,0,.69-1,3.55,3.55,0,0,0,.22-1.23,2.64,2.64,0,0,0-.26-1.19A3,3,0,0,0,79.22,182.39Z" fill="#ededed"/><path d="M40.84,138.25H27.12a3.14,3.14,0,0,0,0,6.27H40.84a3.14,3.14,0,1,0,0-6.27Z" fill="#ededed"/><path d="M108.77,138.25H95.05a3.14,3.14,0,0,0,0,6.27h13.72a3.14,3.14,0,1,0,0-6.27Z" fill="#ededed"/><path d="M101.91,120.71c-12.57,0-26.63,8.71-26.63,20.36s14.06,20.36,26.63,20.36,26.63-8.71,26.63-20.36S114.48,120.71,101.91,120.71Zm0,34.45c-10.28,0-20.36-7-20.36-14.09S91.63,127,101.91,127s20.37,7,20.37,14.09S112.19,155.16,101.91,155.16Z" fill="#ededed"/></g></g></svg>