<svg xmlns="http://www.w3.org/2000/svg" viewBox="0 0 266.93 270.08"><g id="Layer_2" data-name="Layer 2"><g id="Layer_1-2" data-name="Layer 1"><path d="M266.93,100.45a14.2,14.2,0,1,0-14.2,14.2A14.22,14.22,0,0,0,266.93,100.45Zm-14.2,7.93a7.93,7.93,0,1,1,7.94-7.93A7.94,7.94,0,0,1,252.73,108.38Z" fill="#ededed"/><path d="M11.66,2.88a22.72,22.72,0,0,0,4.87,41.7,23,23,0,0,0,6.23.87A22.72,22.72,0,1,0,11.66,2.88ZM30.75,37.09A16.46,16.46,0,0,1,8.36,30.74a17.18,17.18,0,0,1-1-2.42L20.78,20.8a3.13,3.13,0,1,0-3.05-5.47L6.33,21.69a16.55,16.55,0,0,1,.57-3.46A16.46,16.46,0,0,1,37.1,14.7a15.91,15.91,0,0,1,1.21,2.79c-.06,0-.12,0-.18.06L22.45,26.3A3.13,3.13,0,0,0,24,32.17a3.09,3.09,0,0,0,1.52-.4l13.61-7.59A16.46,16.46,0,0,1,30.75,37.09Z" fill="#ededed"/><path d="M242.17,26.75l3.27-3.27,3.27,3.27a3.11,3.11,0,0,0,2.21.91,3.13,3.13,0,0,0,2.22-5.34l-3.27-3.27,3.27-3.27a3.13,3.13,0,1,0-4.43-4.43l-3.27,3.27-3.27-3.27a3.13,3.13,0,1,0-4.43,4.43L241,19.05l-3.27,3.27a3.13,3.13,0,0,0,4.43,4.43Z" fill="#ededed"/><path d="M29.72,138.73H25.1v-4.62a3.14,3.14,0,1,0-6.27,0v4.62H14.21a3.13,3.13,0,1,0,0,6.26h4.62v4.63a3.14,3.14,0,0,0,6.27,0V145h4.62a3.13,3.13,0,0,0,0-6.26Z" fill="#ededed"/><path d="M227.56,135.93a3.18,3.18,0,1,0,3.18,3.18A3.18,3.18,0,0,0,227.56,135.93Z" fill="#ededed"/><path d="M33.72,76.24a3.19,3.19,0,1,0,3.18,3.19A3.19,3.19,0,0,0,33.72,76.24Z" fill="#ededed"/><path d="M260.61,248.88a3.18,3.18,0,1,0,3.19,3.18A3.18,3.18,0,0,0,260.61,248.88Z" fill="#ededed"/><path d="M11,233.85A3.18,3.18,0,1,0,14.21,237,3.18,3.18,0,0,0,11,233.85Z" fill="#ededed"/><path d="M128,173.92a43.36,43.36,0,0,0-43.31,43.31V267A3.14,3.14,0,0,0,91,267V217.23a37,37,0,1,1,74.09,0V267a3.13,3.13,0,0,0,6.26,0V217.23A43.36,43.36,0,0,0,128,173.92Z" fill="#ededed"/><path d="M147.5,218.87H108.64a7.79,7.79,0,0,0-7.78,7.78v20.76a7.79,7.79,0,0,0,7.78,7.78H147.5a7.8,7.8,0,0,0,7.79-7.78V226.65A7.8,7.8,0,0,0,147.5,218.87ZM149,247.41a1.52,1.52,0,0,1-1.52,1.51H108.64a1.52,1.52,0,0,1-1.52-1.51V226.65a1.52,1.52,0,0,1,1.52-1.52H147.5a1.52,1.52,0,0,1,1.52,1.52Z" fill="#ededed"/><path d="M193.51,155c0-.16.05-.32.05-.49v-5.14a8,8,0,0,0-8-8h-.1c4.59-4,8.79-8.23,9.06-8.5a3.16,3.16,0,0,0,.91-2.33,3.11,3.11,0,0,0-1.08-2.25l-3.65-3.16a67.53,67.53,0,0,0,0-85.48l3.66-3.16a3.13,3.13,0,0,0,.32-4.41A76.05,76.05,0,0,0,137,5.47c-42.08,0-76.31,34.47-76.31,76.84a76.85,76.85,0,0,0,28.49,59.84,8,8,0,0,0-4.49,7.17v4.91a3.12,3.12,0,0,0-1.19.57,88.58,88.58,0,0,0-34.13,70.12v42a3.13,3.13,0,0,0,6.26,0v-42A82.4,82.4,0,0,1,87,160.05a8,8,0,0,0,5.74,2.44h92.84a8,8,0,0,0,5.07-1.85,82.24,82.24,0,0,1,24.64,33.22H199.56a13,13,0,0,0-13,13v29.26a13,13,0,0,0,13,13h21.69V267a3.13,3.13,0,0,0,6.26,0v-42A88.35,88.35,0,0,0,193.51,155Zm6.13-72.64A61.43,61.43,0,0,1,185.93,121L152.14,91.75a17.91,17.91,0,0,0,0-18.88l33.78-29.2A61.37,61.37,0,0,1,199.64,82.31ZM136.56,39.18A2.49,2.49,0,1,1,139,36.69,2.47,2.47,0,0,1,136.56,39.18ZM137,70.6a11.71,11.71,0,1,1-11.6,11.71A11.67,11.67,0,0,1,137,70.6Zm-1.83-6.17,1.42-17.32L138,64.39c-.34,0-.67,0-1,0Q136,64.34,135.14,64.43ZM66.93,82.31c0-38.91,31.42-70.57,70-70.57a69.79,69.79,0,0,1,50.83,22L148,68.19A17.75,17.75,0,0,0,144.4,66L142.52,43a8.72,8.72,0,1,0-11.91,0L128.69,66.4A18,18,0,0,0,137,100.28a17.66,17.66,0,0,0,11-3.85l39.67,34.29a118.71,118.71,0,0,1-12.25,10.57H98.46v0A70.59,70.59,0,0,1,66.93,82.31Zm118.6,73.92H92.69a1.76,1.76,0,0,1-1.76-1.77v-5.14a1.77,1.77,0,0,1,1.76-1.77h92.84a1.77,1.77,0,0,1,1.77,1.77v5.14A1.77,1.77,0,0,1,185.53,156.23Zm14,86.57a6.72,6.72,0,0,1-6.71-6.71V206.83a6.72,6.72,0,0,1,6.71-6.71h17.93a83.65,83.65,0,0,1,3.76,24.8V242.8Z" fill="#ededed"/></g></g></svg>