<svg xmlns="http://www.w3.org/2000/svg" viewBox="0 0 210.96 210.96"><g id="Layer_2" data-name="Layer 2"><g id="Layer_1-2" data-name="Layer 1"><path d="M204.94,70.37a105.5,105.5,0,1,0-64.36,134.57A105.59,105.59,0,0,0,204.94,70.37ZM178,37.87l-14.34,5.06a19.39,19.39,0,0,1-9.28.9L148.75,43a13.73,13.73,0,0,0-5.34.25l-13.36,3.34a1.34,1.34,0,0,1-1.11-.22,1.3,1.3,0,0,1-.56-1l-.53-6.55a1.34,1.34,0,0,1,.76-1.32l12.08-5.76a14.52,14.52,0,0,0,6.6-6.41l4-7.75A99.48,99.48,0,0,1,178,37.87ZM119.19,7.28c-10.24,5-20.4,2.53-26.72-.15a97,97,0,0,1,12.92-.87A99.09,99.09,0,0,1,119.19,7.28ZM76.08,63.47a5.21,5.21,0,0,1-.89,5.73L44,103.26a6.88,6.88,0,0,0,2.4,11l18.16,7.64a9.73,9.73,0,0,0,11.13-2.56l2-2.29a2.57,2.57,0,0,1,2.39-.84l40.48,7.2a4.41,4.41,0,0,1,3.62,4.2l.54,18.28a4.37,4.37,0,0,1-.79,2.66c-1,1.44-2.58,3.3-4.26,5.27-4.82,5.69-9.81,11.58-9.71,16.4.06,3.33,1.3,4.94,3.19,7.38.63.81,1.4,1.8,2.33,3.1a1.33,1.33,0,0,1,.15,1.29,1.29,1.29,0,0,1-1,.81l-1.69.33a5.24,5.24,0,0,1-4.9-1.64l-10-8.3A9.89,9.89,0,0,1,96,169l-3.49-14.86a10.36,10.36,0,0,0-9.45-8,34.28,34.28,0,0,0-6.63.33c-3.55.43-5.89.71-9.06-1.33-2.32-1.49-2.31-3.44-2.1-6.75.13-2.14.28-4.35-.84-6.29C61.51,127,41,119.9,36,118.54a11.49,11.49,0,0,1-5.11-3L7.28,91.68a99.68,99.68,0,0,1,9.39-30.25L68.87,43c.84.33,2.66,1.11,6.55,2.93a2.77,2.77,0,0,1,1.52,3.14L75.31,56A11.58,11.58,0,0,0,76.08,63.47ZM91.94,203.71c10.06-4.84,20-2.49,26.32.14A97.82,97.82,0,0,1,91.94,203.71ZM138.5,199a102.75,102.75,0,0,1-10.29,3c-2.66-1.75-25.11-15.59-45.42,0A99.13,99.13,0,0,1,6.44,99.74l20,20.21a17.67,17.67,0,0,0,7.9,4.63c9.59,2.62,23.13,8.73,24.66,10.62A10.38,10.38,0,0,1,59,138c-.21,3.31-.56,8.86,5,12.42,5.07,3.26,9.39,2.75,13.2,2.28a29.92,29.92,0,0,1,5.47-.3,4.12,4.12,0,0,1,3.76,3.2l3.48,14.85a16.19,16.19,0,0,0,3.71,7.1l10,8.32a11.56,11.56,0,0,0,8.41,3.63,11.4,11.4,0,0,0,2.17-.21l1.69-.33a7.6,7.6,0,0,0,4.75-11.88c-1-1.39-1.8-2.44-2.47-3.31-1.76-2.27-1.87-2.47-1.89-3.66-.05-2.46,5.14-8.58,8.23-12.23,1.77-2.08,3.44-4.05,4.61-5.72a10.54,10.54,0,0,0,1.92-6.45l-.53-18.28a10.71,10.71,0,0,0-8.8-10.18L81.21,110a8.9,8.9,0,0,0-8.2,2.88l-2,2.29a3.5,3.5,0,0,1-4,.92l-18.16-7.65a.61.61,0,0,1-.21-1L79.81,73.43a11.47,11.47,0,0,0,2-12.59,5.31,5.31,0,0,1-.35-3.4L83,50.52a9.08,9.08,0,0,0-5-10.26c-8.73-4.08-9-4-10.32-3.5L21.26,53.17a98.67,98.67,0,0,1,51.2-41.24A100.4,100.4,0,0,1,82.63,9c1.31.88,11.57,7.44,24.29,7.44A34.3,34.3,0,0,0,128.31,9a100.06,100.06,0,0,1,17.31,5.9l-3.91,7.6A8.08,8.08,0,0,1,138,26.09l-12.08,5.76a7.66,7.66,0,0,0-4.31,7.49l.53,6.55a7.62,7.62,0,0,0,7.59,7,7.71,7.71,0,0,0,1.84-.22l13.36-3.34a7.66,7.66,0,0,1,2.9-.14l5.65.84a25.63,25.63,0,0,0,12.28-1.18L182.43,43a97.92,97.92,0,0,1,6.51,8.92l-27.77,9.8a12,12,0,0,1-6.39.45A34.22,34.22,0,0,1,150,60.65c-3.6-1.31-7.68-2.79-12.36-1.15a42.53,42.53,0,0,0-9.16,5.13,15.83,15.83,0,0,0-6.78,13.87l.6,10.36a13,13,0,0,0,6.16,10.33l7.09,4.37a16.44,16.44,0,0,0,14.6,1.28l5.27-2.08a8.68,8.68,0,0,1,10.23,3l7.27,10.05a6.76,6.76,0,0,1,1.23,3l1,6.62a15.46,15.46,0,0,0,7.94,11.37l13.71,7.36A99,99,0,0,1,138.5,199ZM199,138.29l-13-7a9.17,9.17,0,0,1-4.7-6.73l-.94-6.62a13.2,13.2,0,0,0-2.37-5.84l-7.27-10a14.93,14.93,0,0,0-17.6-5.14L147.87,99a10.14,10.14,0,0,1-9-.8l-7.09-4.36a6.79,6.79,0,0,1-3.2-5.36L128,78.14a9.52,9.52,0,0,1,4.07-8.35,37.73,37.73,0,0,1,7.69-4.38c2.43-.85,4.68-.13,8.13,1.13a39.34,39.34,0,0,0,5.67,1.73,18.28,18.28,0,0,0,9.72-.68l29-10.22A98.74,98.74,0,0,1,199,138.29Z" fill="#ededed"/></g></g></svg>