<svg xmlns="http://www.w3.org/2000/svg" viewBox="0 0 299.18 273.78"><g id="Layer_2" data-name="Layer 2"><g id="Layer_1-2" data-name="Layer 1"><path d="M103.7,63.11A23.26,23.26,0,0,0,127,40c0-11.42-8.51-18-23.34-18S80.35,28.57,80.35,40A23.26,23.26,0,0,0,103.7,63.11Zm0-34.83c11.33,0,17.07,3.94,17.07,11.71a17.08,17.08,0,0,1-34.15,0C86.62,32.22,92.36,28.28,103.7,28.28Z" fill="#ededed"/><path d="M127,115.28V96.52a8.17,8.17,0,0,0-8.16-8.16H88.51a8.17,8.17,0,0,0-8.16,8.16v18.76a8.17,8.17,0,0,0,8.16,8.16h30.36A8.17,8.17,0,0,0,127,115.28Zm-6.26,0a1.9,1.9,0,0,1-1.9,1.9H88.51a1.9,1.9,0,0,1-1.89-1.9V96.52a1.9,1.9,0,0,1,1.89-1.9h30.36a1.9,1.9,0,0,1,1.9,1.9Z" fill="#ededed"/><path d="M142.3,245.44c-.26,0-.52,0-.78,0V178.07a13.67,13.67,0,0,0,7.55,2.27h1.44a13.83,13.83,0,0,0,13.81-13.81V105a51.74,51.74,0,0,0-11.4-32.22V38.51a12,12,0,0,0-12-12H136a35.07,35.07,0,0,0-64.6,0h-3V13.62a3.14,3.14,0,0,0-6.27,0V27.21a12,12,0,0,0-8.27,11.3V73.1c0,.14.07.27.08.41A51.63,51.63,0,0,0,43.08,105v61.51a13.82,13.82,0,0,0,13.81,13.81h1.44a13.66,13.66,0,0,0,7.54-2.27v67.44c-.44,0-.88-.07-1.32-.07a19.89,19.89,0,0,0-20,19.78,8.6,8.6,0,0,0,8.62,8.56H97.75a3.13,3.13,0,0,0,3.13-3.13V202.14a2.55,2.55,0,0,1,5.09,0v68.51a3.13,3.13,0,0,0,3.13,3.13h44.54a8.6,8.6,0,0,0,8.62-8.56A19.9,19.9,0,0,0,142.3,245.44Zm15.75-78.91a7.55,7.55,0,0,1-7.54,7.54h-1.44a7.55,7.55,0,0,1-7.55-7.54v-1.78h16.53ZM157,95.35h-8.52V89.81h6.9A45.19,45.19,0,0,1,157,95.35Zm-16.1-62.53a5.74,5.74,0,0,1,5.78,5.69V66.23a52.11,52.11,0,0,0-13.14-8.51,34.07,34.07,0,0,0,5.14-18,33.66,33.66,0,0,0-.71-6.93ZM103.7,11.4a28.55,28.55,0,0,1,28.68,28.35,28.69,28.69,0,0,1-57.37,0A28.56,28.56,0,0,1,103.7,11.4ZM65.91,32.82h3.54a34,34,0,0,0,4.44,24.9,52,52,0,0,0-13.76,9V38.51A5.74,5.74,0,0,1,65.91,32.82ZM58.33,174.07H56.89a7.55,7.55,0,0,1-7.55-7.54v-1.78H65.87v1.78A7.55,7.55,0,0,1,58.33,174.07Zm95.31,93.45H112.23V251.71h6a3.14,3.14,0,0,0,0-6.27h-6v-43.3a8.81,8.81,0,0,0-17.62,0v43.3h-6a3.14,3.14,0,0,0,0,6.27h6v15.81H53.21a2.33,2.33,0,0,1-2.36-2.3,13.62,13.62,0,0,1,13.7-13.51,19.15,19.15,0,0,1,13.83,5.81,3.13,3.13,0,1,0,4.49-4.37,25.44,25.44,0,0,0-10.73-6.58V109.82a3.14,3.14,0,1,0-6.27,0v48.67H49.34V105A45.93,45.93,0,0,1,77.77,62.88a35,35,0,0,0,51.85,0,46.13,46.13,0,0,1,22.92,20.66h-7.23a3.13,3.13,0,0,0-3.13,3.13V98.48a3.13,3.13,0,0,0,3.13,3.13h12.61c.08,1.13.13,2.26.13,3.41v53.47H141.52v-49a3.13,3.13,0,1,0-6.26,0v137A25.28,25.28,0,0,0,124,253.15a3.13,3.13,0,1,0,4.49,4.37,19.13,19.13,0,0,1,13.83-5.81A13.62,13.62,0,0,1,156,265.22,2.32,2.32,0,0,1,153.64,267.52Z" fill="#ededed"/><path d="M205.6,139.08c8.14,0,16.18-1.48,24.07-2.93,13.51-2.48,26.27-4.83,39-.14a3.13,3.13,0,0,0,4.22-2.94V83.17a3.13,3.13,0,0,0-2.05-2.94c-14.37-5.28-28.59-2.67-42.34-.14-13.51,2.48-26.28,4.83-39,.14a2.93,2.93,0,0,0-1-.17l-.1,0-.11,0a3.05,3.05,0,0,0-1.07.22l-.13.07a3.13,3.13,0,0,0-.48.25c-.12.08-.21.19-.32.28a1.85,1.85,0,0,0-.14.14,2.78,2.78,0,0,0-.58.86c0,.06-.05.13-.08.2a3.07,3.07,0,0,0-.22,1.09V270.65a3.14,3.14,0,0,0,6.27,0V137.33A54.31,54.31,0,0,0,205.6,139.08Zm24.07-52.83c12.79-2.35,24.91-4.58,37-.83V128.8c-12.93-3.44-25.71-1.09-38.12,1.19-12.79,2.35-24.91,4.58-37,.84V87.44C204.48,90.89,217.26,88.54,229.67,86.25Z" fill="#ededed"/><path d="M297.29,235.5a405,405,0,0,0-97.51-28.34,3.13,3.13,0,1,0-.95,6.19,399.47,399.47,0,0,1,96,27.91,3.13,3.13,0,0,0,2.47-5.76Z" fill="#ededed"/><path d="M174.92,204.17c-9-.76-18.13-1.2-27.13-1.28h0a3.14,3.14,0,0,0,0,6.27c8.84.08,17.81.5,26.66,1.26h.27a3.14,3.14,0,0,0,.26-6.26Z" fill="#ededed"/><path d="M62.07,216.14a3.12,3.12,0,0,0-3.83-2.23c-35.58,9.4-55.86,21.27-56.7,21.78a3.13,3.13,0,0,0,1.6,5.82,3.17,3.17,0,0,0,1.59-.43c.2-.12,20.45-12,55.11-21.11A3.13,3.13,0,0,0,62.07,216.14Z" fill="#ededed"/><path d="M179,10.69a3.14,3.14,0,0,0-4.43,0l-2,2-2-2a3.13,3.13,0,0,0-4.43,4.43l2,2-2,2a3.13,3.13,0,1,0,4.43,4.43l2-2,2,2A3.13,3.13,0,0,0,179,19.05l-2-2,2-2A3.14,3.14,0,0,0,179,10.69Z" fill="#ededed"/><path d="M13.32,59.09a3.13,3.13,0,0,0,4.43,0L21,55.82l3.27,3.27a3.13,3.13,0,0,0,4.43-4.43l-3.27-3.27,3.27-3.27a3.13,3.13,0,0,0-4.43-4.43L21,47l-3.27-3.27a3.13,3.13,0,0,0-4.43,4.43l3.27,3.27-3.27,3.27A3.14,3.14,0,0,0,13.32,59.09Z" fill="#ededed"/><path d="M266.52,156.23a3.13,3.13,0,1,0-4.43,4.43l3.26,3.27-3.26,3.27a3.14,3.14,0,0,0,2.21,5.35,3.16,3.16,0,0,0,2.22-.92l3.26-3.27,3.27,3.27a3.16,3.16,0,0,0,2.22.92,3.14,3.14,0,0,0,2.21-5.35l-3.27-3.27,3.27-3.27a3.13,3.13,0,0,0-4.43-4.43l-3.27,3.27Z" fill="#ededed"/><path d="M12.14,198.74a3.15,3.15,0,0,0,4.43,0l3.27-3.27,3.27,3.27a3.13,3.13,0,0,0,4.43-4.43L24.27,191l3.27-3.27a3.13,3.13,0,0,0-4.43-4.43l-3.27,3.27-3.27-3.27a3.13,3.13,0,0,0-4.43,4.43L15.41,191l-3.27,3.27A3.14,3.14,0,0,0,12.14,198.74Z" fill="#ededed"/><path d="M206.49,40.55c1,2.64,3.83,5.68,11.5,6.25A28.32,28.32,0,0,0,267.8,28.38c5.47-5.43,5.64-9.61,4.66-12.25s-3.81-5.66-11.52-6.25a28.3,28.3,0,0,0-49.78,18.38C205.59,33.79,205.54,38,206.49,40.55ZM247.14,49a21.94,21.94,0,0,1-16.89-.64,22.6,22.6,0,0,1-3.35-1.93A81.65,81.65,0,0,0,244.53,42a81.27,81.27,0,0,0,16.28-8.07A21.87,21.87,0,0,1,247.14,49ZM266.58,18.3a2.21,2.21,0,0,1-.14,1.43c-.13-.41-.24-.83-.39-1.23s-.34-.79-.51-1.19A2.19,2.19,0,0,1,266.58,18.3ZM231.81,7.64a21.81,21.81,0,0,1,7.64-1.38,22,22,0,0,1,21.93,19.5c-4.66,3.86-11.4,7.54-19,10.36s-15.14,4.42-21.19,4.52A22.35,22.35,0,0,1,218.77,36,22.1,22.1,0,0,1,231.81,7.64ZM212.89,38.18c.15.4.34.78.5,1.17a2.23,2.23,0,0,1-1-1,2.34,2.34,0,0,1,.17-1.36C212.65,37.4,212.75,37.79,212.89,38.18Z" fill="#ededed"/></g></g></svg>