<svg xmlns="http://www.w3.org/2000/svg" viewBox="0 0 294.35 199.2"><g id="Layer_2" data-name="Layer 2"><g id="Layer_1-2" data-name="Layer 1"><path d="M99.81,155.45a8.25,8.25,0,1,0,8.25,8.24A8.25,8.25,0,0,0,99.81,155.45Zm0,10.22a2,2,0,1,1,2-2A2,2,0,0,1,99.81,165.67Z" fill="#ededed"/><path d="M87,163.33a2.47,2.47,0,1,0,2.47,2.47A2.48,2.48,0,0,0,87,163.33Z" fill="#ededed"/><path d="M81.36,151.67a21.69,21.69,0,1,0,30.68,0A21.72,21.72,0,0,0,81.36,151.67Zm12.12,30.4a3.41,3.41,0,0,1,2.42-1,3.36,3.36,0,0,1,2.57,1.23A15.49,15.49,0,0,1,93.48,182.07Zm18.36-12.22a2.48,2.48,0,0,0-2.46,2.47,2.43,2.43,0,0,0,.89,1.86,15,15,0,0,1-2.66,3.74,15.6,15.6,0,0,1-3,2.28,9.7,9.7,0,0,0-17-.79,15.09,15.09,0,0,1-1.83-1.49,15.43,15.43,0,1,1,26.05-8.07Z" fill="#ededed"/><path d="M234,60.67a3.14,3.14,0,0,0-4.43.16L114.16,184.74a24.67,24.67,0,0,1-17.85,8.19,25,25,0,0,1-18.24-7.29A24.92,24.92,0,0,1,79,149.52L202.88,34.18a3.13,3.13,0,1,0-4.27-4.58L74.76,144.9a31.18,31.18,0,0,0,20.9,54.3h.8A30.84,30.84,0,0,0,118.77,189L234.11,65.1A3.14,3.14,0,0,0,234,60.67Z" fill="#ededed"/><path d="M103.48,141.12a3.09,3.09,0,0,0,2.25.95,3.13,3.13,0,0,0,2.18-.88L222.63,29.85a3.13,3.13,0,1,0-4.36-4.49L103.55,136.69A3.12,3.12,0,0,0,103.48,141.12Z" fill="#ededed"/><path d="M116.16,147.35a3.12,3.12,0,0,0,2.21.92,3.16,3.16,0,0,0,2.22-.92l122-122a3.13,3.13,0,0,0-4.43-4.43l-122,122A3.12,3.12,0,0,0,116.16,147.35Z" fill="#ededed"/><path d="M233.63,40.9,122.31,155.6a3.13,3.13,0,0,0,4.5,4.36L238.12,45.26a3.13,3.13,0,1,0-4.49-4.36Z" fill="#ededed"/><path d="M292.87,154.77a268.86,268.86,0,0,0-95.86-37,3.14,3.14,0,0,0-1.07,6.18,262.29,262.29,0,0,1,93.62,36.1,3.13,3.13,0,1,0,3.31-5.32Z" fill="#ededed"/><path d="M82.81,125.49A3.13,3.13,0,0,0,79,123.23C32.39,135.14,2.68,154,1.44,154.8a3.14,3.14,0,0,0,1.7,5.77,3.07,3.07,0,0,0,1.68-.5C5.12,159.88,35,141,80.55,129.3A3.13,3.13,0,0,0,82.81,125.49Z" fill="#ededed"/><path d="M262.31,23.06h4.63v4.63a3.13,3.13,0,0,0,6.26,0V23.06h4.63a3.13,3.13,0,0,0,0-6.26H273.2V12.18a3.13,3.13,0,1,0-6.26,0V16.8h-4.63a3.13,3.13,0,1,0,0,6.26Z" fill="#ededed"/><path d="M12.9,52.94a3.11,3.11,0,0,0,2.21.91,3.15,3.15,0,0,0,2.22-.91l3.26-3.27,3.27,3.27a3.15,3.15,0,0,0,2.22.91,3.13,3.13,0,0,0,2.21-5.34L25,45.24,28.29,42a3.13,3.13,0,1,0-4.43-4.43l-3.27,3.27-3.26-3.27A3.13,3.13,0,1,0,12.9,42l3.26,3.27L12.9,48.51A3.12,3.12,0,0,0,12.9,52.94Z" fill="#ededed"/><path d="M163.09,15.36a3.19,3.19,0,1,0-3.18-3.18A3.18,3.18,0,0,0,163.09,15.36Z" fill="#ededed"/><path d="M108.67,63.47a3.19,3.19,0,1,0,3.18-3.19A3.19,3.19,0,0,0,108.67,63.47Z" fill="#ededed"/><path d="M44.63,97a3.18,3.18,0,1,0-3.18-3.18A3.18,3.18,0,0,0,44.63,97Z" fill="#ededed"/><path d="M270.07,105.72a3.18,3.18,0,1,0,3.18,3.18A3.18,3.18,0,0,0,270.07,105.72Z" fill="#ededed"/><path d="M38.27,9a3.18,3.18,0,1,0-3.18-3.18A3.18,3.18,0,0,0,38.27,9Z" fill="#ededed"/><path d="M94.78,35A17.51,17.51,0,1,0,77.27,17.51,17.54,17.54,0,0,0,94.78,35Zm0-28.75A11.25,11.25,0,1,1,83.53,17.51,11.25,11.25,0,0,1,94.78,6.27Z" fill="#ededed"/></g></g></svg>