<svg xmlns="http://www.w3.org/2000/svg" viewBox="0 0 259.6 268.19"><g id="Layer_2" data-name="Layer 2"><g id="Layer_1-2" data-name="Layer 1"><path d="M241.86,239.34a3.14,3.14,0,0,0-4.43,0l-3.27,3.27-3.27-3.27a3.13,3.13,0,0,0-4.43,4.43l3.27,3.27-3.27,3.27a3.13,3.13,0,1,0,4.43,4.43l3.27-3.27,3.27,3.27a3.12,3.12,0,0,0,2.21.92,3.14,3.14,0,0,0,2.22-5.35L238.59,247l3.27-3.27A3.14,3.14,0,0,0,241.86,239.34Z" fill="#ededed"/><path d="M18.53,28.78A3.13,3.13,0,0,0,23,24.35l-3.27-3.27L23,17.81a3.13,3.13,0,1,0-4.43-4.43l-3.27,3.27L12,13.38a3.13,3.13,0,0,0-4.43,4.43l3.27,3.27L7.56,24.35A3.13,3.13,0,1,0,12,28.78l3.27-3.27Z" fill="#ededed"/><path d="M127.45,6.36a3.18,3.18,0,1,0-3.18-3.18A3.18,3.18,0,0,0,127.45,6.36Z" fill="#ededed"/><path d="M73.15,261.82A3.19,3.19,0,1,0,76.33,265,3.18,3.18,0,0,0,73.15,261.82Z" fill="#ededed"/><path d="M3.18,70a3.18,3.18,0,1,0,3.18,3.18A3.18,3.18,0,0,0,3.18,70Z" fill="#ededed"/><circle cx="256.42" cy="85.2" r="3.18" fill="#ededed"/><path d="M233.57,106.63a3.13,3.13,0,1,0-6,1.62A103.61,103.61,0,0,1,98.44,234.49a3.13,3.13,0,0,0-1.75,6A109.88,109.88,0,0,0,233.57,106.63Z" fill="#ededed"/><path d="M49.78,212.71a111,111,0,0,0,14.2,12,3.13,3.13,0,0,0,3.62-5.11,105.12,105.12,0,0,1-13.39-11.32A103.57,103.57,0,1,1,212,75.19a3.13,3.13,0,1,0,5.11-3.62A109.85,109.85,0,1,0,49.78,212.71Z" fill="#ededed"/><path d="M195.34,34c16-6,28-6.2,33.7-.52,6.16,6.16,5.43,19.48-2,37.52-6.86,16.56-18.92,36-34.89,56.26a3.13,3.13,0,1,0,4.92,3.88c16.32-20.69,28.68-40.66,35.76-57.75,8.63-20.82,8.86-36.16.68-44.34-7.62-7.63-21.57-7.94-40.33-.92a3.13,3.13,0,1,0,2.2,5.87Z" fill="#ededed"/><path d="M124.47,199.9a3.13,3.13,0,0,0-4.4-.52c-20.41,16.13-40,28.31-56.7,35.22-18,7.47-31.35,8.19-37.51,2-5.67-5.67-5.49-17.64.53-33.69a3.13,3.13,0,1,0-5.87-2.2c-7,18.76-6.71,32.7.91,40.32,4,4,9.66,6,16.83,6,7.58,0,16.82-2.21,27.51-6.64,17.21-7.13,37.32-19.61,58.18-36.1A3.12,3.12,0,0,0,124.47,199.9Z" fill="#ededed"/><path d="M184.91,159.32a17.87,17.87,0,0,0,3.61-6l2.33-6.59a7.12,7.12,0,0,0-8.72-9.2l-6.7,2a17.61,17.61,0,0,0-6.22,3.27l-19.83,16.14a4.69,4.69,0,0,1-3.49,1l-16.78-1.68a6.88,6.88,0,0,0-4.63,1.22l-2.71,1.91a6.82,6.82,0,0,0-1.78,9.36l8.48,9.75a6,6,0,0,0-2,5.76c.54,2.57,2.5,4.63,4.77,7l1.22,1.29c2.25,2.39,4.2,4.45,6.72,5.13a6.18,6.18,0,0,0,1.53.2A6.06,6.06,0,0,0,145,198l8.93,8.7.33.28a6.81,6.81,0,0,0,9.44-1.27l2-2.6a6.82,6.82,0,0,0,1.47-4.57l-.77-16.84a4.78,4.78,0,0,1,1.24-3.43Zm-44.28,34.24a17.88,17.88,0,0,1-3.64-3.32l-1.24-1.32a25.48,25.48,0,0,1-3.25-3.75l14-9.11a2.9,2.9,0,0,1,3.92,4.14ZM163.09,174a10.94,10.94,0,0,0-2.86,7.93l.78,16.84a.61.61,0,0,1-.13.39l-2.06,2.61a.59.59,0,0,1-.7.17l-9.27-9,6.61-9a9.16,9.16,0,0,0-12.4-13.09l-9.38,6.11-8.51-9.75a.6.6,0,0,1,.21-.69l2.71-1.91a.64.64,0,0,1,.4-.11l16.77,1.69a11,11,0,0,0,8.08-2.42l19.82-16.14a11.48,11.48,0,0,1,4-2.12l6.71-2a.85.85,0,0,1,1,1.1l-2.33,6.59a11.3,11.3,0,0,1-2.34,3.91Z" fill="#ededed"/></g></g></svg>