<svg xmlns="http://www.w3.org/2000/svg" viewBox="0 0 173.11 261.73"><g id="Layer_2" data-name="Layer 2"><g id="Layer_1-2" data-name="Layer 1"><path d="M85.68,38.3a11.26,11.26,0,1,0-7.39-2.73A11.28,11.28,0,0,0,85.68,38.3Zm0-16.21a5,5,0,1,1-5,5A5,5,0,0,1,85.68,22.09Z" fill="#ededed"/><path d="M117.34,75.11a26,26,0,0,0,7.54-9.57s0-.06,0-.09c27-3.89,48.2-12,48.2-23.94,0-16.42-37.88-22.75-53-24.62a41.81,41.81,0,0,0-67.14,0c-14,1.73-53,8-53,24.63C0,53.44,21.29,61.57,48.29,65.46A26.34,26.34,0,0,0,55,74.37L1.41,230.52a13,13,0,0,0,3.32,13.89c11.4,10.36,44.28,17.32,81.83,17.32s70.39-7,81.8-17.31a13,13,0,0,0,3.3-13.95ZM86.56,6.27a35.43,35.43,0,0,1,35.53,35.24c-.18,2.32-12.48,7.74-35.53,7.74S51.2,43.83,51,41.51A35.43,35.43,0,0,1,86.56,6.27ZM6.27,41.51c0-6,14.59-13.72,42.56-17.75a41,41,0,0,0-4.07,17.75c0,9.62,21.66,14,41.8,14s41.8-4.38,41.8-14a41,41,0,0,0-4.07-17.74c27.68,4,42.56,11.88,42.56,17.74,0,8.49-30.55,20.32-80.29,20.32S6.27,50,6.27,41.51ZM86.56,68.09a281.19,281.19,0,0,0,30.53-1.65c-5.83,8-16.17,9.67-30.49,9.67S62,74.38,56.13,66.45A279.36,279.36,0,0,0,86.56,68.09Zm77.59,171.69C154,249,122.06,255.47,86.56,255.47S19.11,249,9,239.77a6.82,6.82,0,0,1-1.61-7.21L60.46,77.89c7.48,3.73,16.76,4.49,26.14,4.49,8.58,0,17.69-.47,25.26-3.95l53.89,154.11A6.79,6.79,0,0,1,164.15,239.78Z" fill="#ededed"/><path d="M85.68,121.28a3.13,3.13,0,0,0,3.13-3.13V98.83a3.13,3.13,0,1,0-6.26,0v19.32A3.13,3.13,0,0,0,85.68,121.28Z" fill="#ededed"/><path d="M85.68,174.36a3.13,3.13,0,0,0-3.13,3.14v19.88a3.13,3.13,0,1,0,6.26,0V177.5A3.13,3.13,0,0,0,85.68,174.36Z" fill="#ededed"/><path d="M85.68,218.92a3.13,3.13,0,0,0-3.13,3.13V232a3.13,3.13,0,1,0,6.26,0v-9.92A3.13,3.13,0,0,0,85.68,218.92Z" fill="#ededed"/><path d="M105.93,145.09a5.84,5.84,0,0,0-6.07-1.83l-10,2.9-4-2.14.09,0a8.19,8.19,0,0,0,5.29-5.22l1.51-4.55a3.13,3.13,0,1,0-5.95-2l-1.51,4.55A1.87,1.87,0,0,1,84.06,138l-5.88,1.85-1.46-.79a7.52,7.52,0,1,0-7.52,7.05,7.64,7.64,0,0,0,2.16-.32,7.51,7.51,0,0,0,2.37-1.22l.75.4c0,1.38,0,3.4.16,6.51a8.16,8.16,0,0,0,2,4.94l5,5.64a3.13,3.13,0,1,0,4.68-4.16l-5-5.64a1.79,1.79,0,0,1-.47-1.14c-.06-1.06-.1-1.95-.13-2.74l6.88,3.72,6.87,6a1.22,1.22,0,0,1,.41,1L94.29,167a3.13,3.13,0,0,0,2.86,3.38h.26a3.13,3.13,0,0,0,3.12-2.88l.64-7.78a7.48,7.48,0,0,0-2.52-6.25L95.81,151l5.52-1.59,7,8.35a3.11,3.11,0,0,0,2.39,1.12,3.14,3.14,0,0,0,2.4-5.16Zm-36.36-5.3a1.27,1.27,0,0,1-1-.1,1.28,1.28,0,0,1-.51-1.73,1.28,1.28,0,0,1,1.13-.68,1.39,1.39,0,0,1,.61.16,1.28,1.28,0,0,1,.51,1.73h0A1.25,1.25,0,0,1,69.57,139.79Z" fill="#ededed"/></g></g></svg>