<?xml version="1.0" encoding="utf-8"?>
<!-- Generator: Adobe Illustrator 25.2.0, SVG Export Plug-In . SVG Version: 6.00 Build 0)  -->
<svg version="1.1" id="Layer_1" xmlns="http://www.w3.org/2000/svg" xmlns:xlink="http://www.w3.org/1999/xlink" x="0px" y="0px"
	 viewBox="0 0 24 15" style="enable-background:new 0 0 24 15;" xml:space="preserve">
<style type="text/css">
	.st0{fill:#FFFFFF;}
</style>
<path class="st0" d="M22,2h-7V0h7V2z M23.7,12c-0.4,1.3-2,3-5.1,3c-3.1,0-5.6-1.7-5.6-5.7c0-3.9,2.3-5.9,5.5-5.9
	c3.1,0,5,1.8,5.4,4.4C24,8.3,24,9,24,10h-8c0.1,3.2,3.5,3.3,4.6,2C20.6,12,23.7,12,23.7,12z M16,8h5c-0.1-1.5-1.1-2.2-2.5-2.2
	C17.1,5.8,16.3,6.5,16,8z M6.5,15H0V0h7c5.5,0.1,5.6,5.4,2.7,6.9C13.1,8.2,13.2,15,6.5,15z M3,6h3.6c2.5,0,2.9-3-0.3-3H3
	C3,3,3,6,3,6z M6.4,9H3v3h3.3C9.4,12,9.2,9,6.4,9z"/>
</svg>
