<svg xmlns="http://www.w3.org/2000/svg" viewBox="0 0 10 10"><defs><style>.cls-1{fill:none;stroke:#ff9b00;stroke-miterlimit:10;stroke-width:0.5px;}.cls-2{fill:#fff;}</style></defs><title>Asset 2</title><g id="Layer_2" data-name="Layer 2"><g id="Layer_2-2" data-name="Layer 2"><circle class="cls-1" cx="5" cy="5" r="4.75" transform="matrix(1, 0, 0, 1, -0.02, 0.02)"/><path class="cls-2" d="M7.5,3.82A2,2,0,0,1,7,4a.92.92,0,0,0,.41-.5,1.82,1.82,0,0,1-.6.23,1,1,0,0,0-.7-.28.92.92,0,0,0-1,.91.65.65,0,0,0,0,.2,2.78,2.78,0,0,1-2-.93A.89.89,0,0,0,3,4a.87.87,0,0,0,.43.75A.93.93,0,0,1,3,4.68v0a.91.91,0,0,0,.78.87,1.09,1.09,0,0,1-.25,0l-.18,0a.94.94,0,0,0,.89.62,1.93,1.93,0,0,1-1.19.39H2.86A2.89,2.89,0,0,0,4.33,7,2.62,2.62,0,0,0,7,4.41V4.29a2.05,2.05,0,0,0,.46-.47Z"/></g></g></svg>