<?xml version="1.0" encoding="utf-8"?>
<!-- Generator: Adobe Illustrator 25.2.0, SVG Export Plug-In . SVG Version: 6.00 Build 0)  -->
<svg version="1.1" id="Layer_1" xmlns="http://www.w3.org/2000/svg" xmlns:xlink="http://www.w3.org/1999/xlink" x="0px" y="0px"
	 viewBox="0 0 1025 68.6" style="enable-background:new 0 0 1025 68.6;" xml:space="preserve">
<style type="text/css">
	.st0{fill:#FF9B00;}
</style>
<g id="Layer_1_1_">
</g>
<g>
	<path class="st0" d="M96.5,19.2c8.4,0,15.3,6.9,15.3,15.3s-6.9,15.3-15.3,15.3s-15.3-6.9-15.3-15.3S88.1,19.2,96.5,19.2 M96.5,18.2
		c-9,0-16.3,7.3-16.3,16.3s7.3,16.3,16.3,16.3s16.3-7.3,16.3-16.3S105.5,18.2,96.5,18.2L96.5,18.2z"/>
</g>
<g>
	<path class="st0" d="M147.7,19.2c8.4,0,15.3,6.9,15.3,15.3s-6.9,15.3-15.3,15.3s-15.3-6.9-15.3-15.3S139.3,19.2,147.7,19.2
		 M147.7,18.2c-9,0-16.3,7.3-16.3,16.3s7.3,16.3,16.3,16.3S164,43.5,164,34.5S156.7,18.2,147.7,18.2L147.7,18.2z"/>
</g>
<g>
	<path class="st0" d="M45.3,19.2c8.4,0,15.3,6.9,15.3,15.3s-6.9,15.3-15.3,15.3S30,42.9,30,34.5S36.9,19.2,45.3,19.2 M45.3,18.2
		c-9,0-16.3,7.3-16.3,16.3s7.3,16.3,16.3,16.3s16.3-7.3,16.3-16.3S54.3,18.2,45.3,18.2L45.3,18.2z"/>
</g>
</svg>
